<svg width="59" height="10" viewBox="0 0 59 10" fill="none" xmlns="http://www.w3.org/2000/svg">
<path d="M0.579545 1.21023V0.272727H7.125V1.21023H4.38068V9H3.32386V1.21023H0.579545ZM8.75604 9V0.272727H14.0231V1.21023H9.81286V4.15909H13.7504V5.09659H9.81286V8.0625H14.0913V9H8.75604ZM22.9506 3H21.8938C21.8313 2.69602 21.7219 2.42898 21.5657 2.19886C21.4123 1.96875 21.2248 1.77557 21.0032 1.61932C20.7844 1.46023 20.5415 1.34091 20.2745 1.26136C20.0075 1.18182 19.729 1.14205 19.4393 1.14205C18.9109 1.14205 18.4322 1.27557 18.0032 1.54261C17.5771 1.80966 17.2376 2.20312 16.9847 2.72301C16.7347 3.2429 16.6097 3.88068 16.6097 4.63636C16.6097 5.39205 16.7347 6.02983 16.9847 6.54972C17.2376 7.0696 17.5771 7.46307 18.0032 7.73011C18.4322 7.99716 18.9109 8.13068 19.4393 8.13068C19.729 8.13068 20.0075 8.09091 20.2745 8.01136C20.5415 7.93182 20.7844 7.81392 21.0032 7.65767C21.2248 7.49858 21.4123 7.30398 21.5657 7.07386C21.7219 6.84091 21.8313 6.57386 21.8938 6.27273H22.9506C22.8711 6.71875 22.7262 7.1179 22.516 7.47017C22.3058 7.82244 22.0444 8.12216 21.7319 8.36932C21.4194 8.61364 21.0685 8.79972 20.6793 8.92756C20.293 9.0554 19.8796 9.11932 19.4393 9.11932C18.695 9.11932 18.033 8.9375 17.4535 8.57386C16.8739 8.21023 16.418 7.69318 16.0856 7.02273C15.7532 6.35227 15.587 5.55682 15.587 4.63636C15.587 3.71591 15.7532 2.92045 16.0856 2.25C16.418 1.57955 16.8739 1.0625 17.4535 0.698864C18.033 0.335227 18.695 0.153409 19.4393 0.153409C19.8796 0.153409 20.293 0.217329 20.6793 0.34517C21.0685 0.473011 21.4194 0.660511 21.7319 0.90767C22.0444 1.15199 22.3058 1.45028 22.516 1.80256C22.7262 2.15199 22.8711 2.55114 22.9506 3ZM24.6584 9V0.272727H25.7152V4.15909H30.3686V0.272727H31.4254V9H30.3686V5.09659H25.7152V9H24.6584ZM34.2912 0.272727V1.03977C34.2912 1.27273 34.2486 1.52131 34.1634 1.78551C34.081 2.04688 33.9588 2.30114 33.7969 2.5483C33.6378 2.79261 33.4446 3.00568 33.2173 3.1875L32.6719 2.74432C32.8509 2.48864 33.0057 2.22301 33.1364 1.94744C33.2699 1.66903 33.3366 1.37216 33.3366 1.05682V0.272727H34.2912Z" fill="#0F1B29"/>
<path d="M35.756 9V0.272727H36.8129V4.15909H41.4663V0.272727H42.5231V9H41.4663V5.09659H36.8129V9H35.756ZM44.6388 9V0.272727H49.9059V1.21023H45.6957V4.15909H49.6332V5.09659H45.6957V8.0625H49.9741V9H44.6388ZM51.8107 9V0.272727H54.7596C55.4414 0.272727 56.0011 0.389204 56.4386 0.622159C56.8761 0.852272 57.1999 1.16903 57.4102 1.57244C57.6204 1.97585 57.7255 2.43466 57.7255 2.94886C57.7255 3.46307 57.6204 3.91903 57.4102 4.31676C57.1999 4.71449 56.8775 5.02699 56.4428 5.25426C56.0082 5.47869 55.4528 5.59091 54.7766 5.59091H52.3903V4.63636H54.7425C55.2085 4.63636 55.5835 4.56818 55.8675 4.43182C56.1545 4.29545 56.3619 4.10227 56.4897 3.85227C56.6204 3.59943 56.6857 3.2983 56.6857 2.94886C56.6857 2.59943 56.6204 2.29403 56.4897 2.03267C56.359 1.77131 56.1502 1.5696 55.8633 1.42756C55.5763 1.28267 55.1971 1.21023 54.7255 1.21023H52.8675V9H51.8107ZM55.9187 5.07955L58.0664 9H56.8391L54.7255 5.07955H55.9187Z" fill="#D86924"/>
</svg>
