<svg width="750" height="500" viewBox="0 0 750 500" fill="none" xmlns="http://www.w3.org/2000/svg">
<path d="M116.45 101H102.34V164.25H116.45V101Z" fill="#E0E0E0"/>
<path d="M77.77 125.57V139.68H141.02V125.57H77.77Z" fill="#E0E0E0"/>
<path d="M161.92 132.78C161.863 132.5 161.83 132.216 161.82 131.93C161.82 131.31 161.72 130.48 161.64 129.43C161.64 128.87 161.56 128.26 161.52 127.59C161.48 126.92 161.3 126.18 161.18 125.39C160.935 123.556 160.561 121.741 160.06 119.96C158.822 115.038 156.847 110.331 154.2 106C147.957 95.568 138.273 87.6389 126.814 83.5777C115.355 79.5166 102.839 79.5775 91.42 83.75C86.6685 85.4069 82.2098 87.8067 78.21 90.86C76.1313 92.3937 74.1569 94.0641 72.3 95.86C70.4634 97.7425 68.7561 99.7471 67.19 101.86C63.9443 106.216 61.425 111.069 59.73 116.23C56.143 126.914 56.143 138.476 59.73 149.16C61.4257 154.319 63.9412 159.171 67.18 163.53C68.7472 165.661 70.4543 167.685 72.29 169.59C74.155 171.381 76.1324 173.051 78.21 174.59C80.2475 176.107 82.3858 177.483 84.61 178.71C86.8099 179.862 89.0851 180.864 91.42 181.71C102.843 185.853 115.352 185.897 126.804 181.835C138.257 177.772 147.941 169.856 154.2 159.44C156.845 155.115 158.82 150.415 160.06 145.5C160.561 143.719 160.935 141.904 161.18 140.07C161.3 139.28 161.44 138.55 161.52 137.87C161.6 137.19 161.6 136.59 161.64 136.03C161.72 135.03 161.78 134.15 161.82 133.53C161.83 133.244 161.863 132.96 161.92 132.68C161.944 132.963 161.944 133.247 161.92 133.53C161.92 134.15 161.92 134.99 161.85 136.05C161.85 136.6 161.85 137.22 161.79 137.9C161.73 138.58 161.6 139.31 161.49 140.12C161.299 141.97 160.964 143.802 160.49 145.6C159.313 150.586 157.377 155.362 154.75 159.76C148.484 170.415 138.687 178.54 127.057 182.727C115.427 186.913 102.699 186.897 91.08 182.68C88.6982 181.838 86.3762 180.836 84.13 179.68C81.8581 178.436 79.6731 177.039 77.59 175.5C75.479 173.924 73.4746 172.211 71.59 170.37C69.7093 168.434 67.962 166.372 66.36 164.2C63.0505 159.748 60.4746 154.796 58.73 149.53C55.0697 138.619 55.0697 126.811 58.73 115.9C60.4658 110.631 63.0424 105.677 66.36 101.23C67.9612 99.063 69.7051 97.0051 71.58 95.07C73.469 93.2343 75.4731 91.5208 77.58 89.94C81.6719 86.8435 86.2238 84.4073 91.07 82.72C100.035 79.4841 109.704 78.7106 119.07 80.48C126.469 81.8977 133.481 84.8746 139.64 89.2128C145.799 93.5509 150.963 99.1509 154.79 105.64C157.419 110.034 159.355 114.807 160.53 119.79C161.004 121.592 161.338 123.427 161.53 125.28C161.64 126.08 161.77 126.82 161.83 127.5C161.89 128.18 161.83 128.79 161.89 129.35C161.89 130.41 161.95 131.25 161.96 131.87C161.974 132.174 161.961 132.479 161.92 132.78Z" fill="#E0E0E0"/>
<path d="M43.67 249.78C43.67 249.78 31.81 253.87 43.9 279.21C55.99 304.55 64.48 317.21 64.48 317.21C64.48 317.21 66.59 323.08 61.68 323.85C56.77 324.62 46.06 322.61 43.68 328.53C41.25 334.67 45.6 340.64 54.59 346.02C63.58 351.4 82.86 363.9 84.59 365.02C86.32 366.14 87.96 368.88 84.7 369.94C81.44 371 57.17 372.87 58.75 384.34C60.33 395.81 87.85 406.66 90.83 407.9C93.81 409.14 94.5 410.45 94.21 412.1C93.92 413.75 85.71 413.61 78.83 414.42C71.95 415.23 64.11 417.42 65.58 423.93C67.05 430.44 83.14 444.54 123 449.54L141.62 450.64L152.19 435.17C172.79 400.67 171.59 379.32 167.34 374.17C163.09 369.02 156.57 373.84 151.69 378.76C146.81 383.68 141.87 390.24 140.39 389.46C138.91 388.68 138.31 387.33 139.17 384.21C140.03 381.09 148.4 352.72 140.34 344.42C132.28 336.12 115.86 354.1 113.02 356.01C110.18 357.92 109.02 354.93 109.21 352.89C109.4 350.85 111.39 327.89 112.68 317.54C113.97 307.19 112 300 105.67 298.14C99.56 296.34 94.55 306.01 90.92 309.41C87.29 312.81 83.92 307.54 83.92 307.54C83.92 307.54 79.26 293.07 66.72 268C54.18 242.93 43.43 249.93 43.43 249.93" fill="#EBEBEB"/>
<path d="M142.52 455C133.38 436.52 117.69 403.39 104.08 375C90.47 346.61 78.08 321 69.08 302.44C64.56 293.2 60.9 285.71 58.35 280.51C57.1 277.94 56.12 275.93 55.44 274.51L54.68 273C54.52 272.65 54.45 272.46 54.45 272.46L54.74 272.97L55.53 274.5C56.23 275.88 57.25 277.87 58.53 280.42C61.14 285.56 64.87 293.03 69.43 302.27C78.58 320.8 91 346.44 104.6 374.8C118.2 403.16 133.84 436.32 142.89 454.85" fill="#E0E0E0"/>
<path d="M58.59 331.9C59.0337 331.984 59.4664 332.119 59.88 332.3C60.7 332.58 61.88 333.03 63.31 333.6C66.19 334.75 70.13 336.43 74.44 338.37L85.44 343.37L88.79 344.86C89.2143 345.015 89.6202 345.216 90 345.46C89.5558 345.383 89.1226 345.252 88.71 345.07C87.89 344.78 86.71 344.33 85.28 343.74C82.41 342.57 78.5 340.84 74.18 338.9L63.15 334L59.8 332.53C59.3753 332.364 58.9697 332.153 58.59 331.9Z" fill="#E0E0E0"/>
<path d="M91.33 344.3C91.18 344.24 94.33 335.97 98.33 325.83C102.33 315.69 105.67 307.51 105.82 307.56C105.97 307.61 102.82 315.89 98.82 326.04C94.82 336.19 91.47 344.36 91.33 344.3Z" fill="#E0E0E0"/>
<path d="M110.27 388.8C110.494 388.397 110.759 388.019 111.06 387.67L113.35 384.67C115.27 382.17 117.92 378.67 120.71 374.77C123.5 370.87 125.9 367.19 127.62 364.54C128.43 363.3 129.12 362.25 129.62 361.4C129.845 360.999 130.117 360.626 130.43 360.29C130.267 360.719 130.063 361.131 129.82 361.52C129.39 362.3 128.75 363.41 127.93 364.76C126.3 367.47 123.93 371.16 121.14 375.1C118.35 379.04 115.64 382.49 113.63 384.93C112.63 386.14 111.78 387.12 111.19 387.78C110.925 388.155 110.616 388.497 110.27 388.8Z" fill="#E0E0E0"/>
<path d="M78.19 384.1C78.6143 384.073 79.0401 384.094 79.46 384.16L82.91 384.53C85.81 384.86 89.81 385.36 94.23 385.95C98.65 386.54 102.65 387.11 105.54 387.55L108.96 388.1C109.383 388.144 109.799 388.238 110.2 388.38C109.776 388.407 109.35 388.386 108.93 388.32L105.49 387.95C102.58 387.62 98.58 387.12 94.16 386.53C89.74 385.94 85.74 385.37 82.85 384.93L79.43 384.38C79.007 384.336 78.5907 384.242 78.19 384.1Z" fill="#E0E0E0"/>
<path d="M89.92 425.52C90.4646 425.495 91.0104 425.522 91.55 425.6L95.96 426.06C99.69 426.47 104.82 427.06 110.49 427.77C116.16 428.48 121.3 429.14 125.01 429.65L129.4 430.29C129.942 430.344 130.477 430.447 131 430.6C130.455 430.624 129.909 430.594 129.37 430.51L124.96 430.06C121.23 429.65 116.1 429.06 110.42 428.35C104.74 427.64 99.62 426.98 95.91 426.46L91.52 425.83C90.9782 425.776 90.4426 425.673 89.92 425.52Z" fill="#E0E0E0"/>
<path d="M130.05 430.2C130.342 429.686 130.677 429.198 131.05 428.74C131.77 427.74 132.7 426.45 133.82 424.88C136.15 421.62 139.36 417.11 142.75 412.02C146.14 406.93 149.12 402.26 151.24 398.85L153.76 394.85C154.051 394.342 154.385 393.86 154.76 393.41C154.55 393.954 154.289 394.476 153.98 394.97C153.44 395.97 152.64 397.37 151.62 399.1C149.62 402.56 146.68 407.28 143.27 412.37C139.86 417.46 136.6 421.95 134.18 425.16C132.97 426.76 131.97 428.04 131.26 428.91C130.897 429.376 130.492 429.808 130.05 430.2Z" fill="#E0E0E0"/>
<path d="M601.57 446.68C574.09 429.86 566.05 396.02 565.23 365.23C565.1 360.09 564.23 354.71 566.38 350.06C568.53 345.41 574.05 341.99 578.78 343.88C582.7 345.44 584.62 349.77 586.98 353.31C590.118 358.029 594.528 361.763 599.7 364.08C603.07 365.58 607.18 366.37 610.29 364.39C614.57 361.69 614.72 355.54 614.38 350.44C613.747 340.933 613.113 331.427 612.48 321.92C612.15 316.82 611.82 311.61 613.11 306.67C614.4 301.73 617.64 297.02 622.41 295.37C627.18 293.72 633.41 296.16 634.68 301.09C635.23 303.14 634.94 305.32 635.21 307.43C635.48 309.54 636.61 311.83 638.66 312.3C640.71 312.77 642.66 311.2 644.12 309.61C649.12 304.15 652.25 297.29 655.19 290.49C658.13 283.69 660.96 276.74 665.4 270.83C669.84 264.92 676.18 260.07 683.47 259.21C690.76 258.35 698.81 262.4 701.09 269.46C703.37 276.52 699.62 284.1 695.4 290.19C689.146 299.225 681.618 307.309 673.05 314.19C671.51 315.43 669.84 316.77 669.34 318.7C668.44 322.16 671.87 325.35 675.29 326.26C679.17 327.26 683.29 326.66 687.29 326.88C691.29 327.1 695.71 328.61 697.45 332.28C699.85 337.37 695.82 343.1 691.74 346.94C683.572 354.626 674.145 360.853 663.87 365.35C660.2 366.95 656.33 368.35 653.46 371.21C650.59 374.07 649.04 378.73 651.09 382.21C653.14 385.69 657.9 386.56 661.78 385.6C665.66 384.64 669.06 382.28 672.72 380.6C679.57 377.53 688.66 377.47 693.52 383.26C696.71 387.07 697.3 392.6 696.1 397.44C694.9 402.28 692.1 406.55 689.1 410.51C678.66 424.38 664.91 435.86 648.99 442.51C633.07 449.16 618.08 451.57 601.56 446.63" fill="#F5F5F5"/>
<path d="M608.34 426.94C611.93 411.15 617.29 394.18 623.52 376.62L628.17 363.62C629.71 359.36 631.24 355.14 632.98 351.1C636.353 343.354 640.148 335.799 644.35 328.47C648.35 321.47 652.35 314.93 656.13 308.86C659.91 302.79 663.61 297.21 667.13 292.26C672.701 284.421 678.887 277.038 685.63 270.18C688.01 267.76 689.91 265.93 691.22 264.72L692.72 263.34C692.885 263.18 693.062 263.032 693.25 262.9C693.116 263.087 692.962 263.258 692.79 263.41L691.35 264.86C690.09 266.12 688.22 267.98 685.89 270.44C679.272 277.379 673.181 284.803 667.67 292.65C664.16 297.65 660.53 303.2 656.75 309.28C652.97 315.36 649 321.9 645.1 328.92C640.938 336.231 637.176 343.762 633.83 351.48C632.1 355.48 630.59 359.69 629.05 363.96L624.4 376.96C618.18 394.51 612.81 411.43 609.18 427.16" fill="#E0E0E0"/>
<path d="M633.25 351.06C632.967 350.367 632.756 349.646 632.62 348.91C632.27 347.52 631.82 345.49 631.31 342.97C630.31 337.97 629.1 330.92 627.83 323.2C626.56 315.48 625.27 308.5 624.17 303.49C623.63 300.99 623.17 298.96 622.83 297.57C622.611 296.854 622.47 296.116 622.41 295.37C622.74 296.041 622.998 296.745 623.18 297.47C623.63 298.84 624.18 300.84 624.82 303.34C626.09 308.34 627.48 315.34 628.75 323.04C630.02 330.74 631.11 337.57 631.96 342.84C632.37 345.22 632.71 347.23 632.96 348.84C633.133 349.568 633.231 350.312 633.25 351.06Z" fill="#E0E0E0"/>
<path d="M698.11 334.84C697.259 335.075 696.389 335.233 695.51 335.31C693.84 335.56 691.42 335.91 688.43 336.44C682.43 337.44 674.27 339.14 665.31 341.39C656.35 343.64 648.31 346.07 642.57 347.97C639.69 348.9 637.37 349.72 635.77 350.28C634.956 350.619 634.113 350.88 633.25 351.06C634.011 350.611 634.811 350.233 635.64 349.93C637.21 349.27 639.49 348.35 642.36 347.33C648.07 345.26 656.09 342.75 665.08 340.47C672.745 338.51 680.505 336.945 688.33 335.78C691.33 335.33 693.78 335.08 695.47 334.94C696.344 334.818 697.229 334.785 698.11 334.84Z" fill="#E0E0E0"/>
<path d="M609.07 425.68C608.867 425.449 608.699 425.19 608.57 424.91L607.31 422.6C606.22 420.6 604.72 417.6 602.91 413.99C599.29 406.66 594.61 396.39 589.6 384.99C584.59 373.59 580.01 363.28 576.55 355.89L572.43 347.15L571.32 344.76C571.166 344.492 571.055 344.202 570.99 343.9C571.19 344.133 571.358 344.392 571.49 344.67C571.83 345.3 572.24 346.06 572.75 346.98C573.84 348.98 575.34 351.93 577.15 355.59C580.77 362.92 585.45 373.19 590.46 384.59C595.47 395.99 600.05 406.31 603.46 413.7C605.16 417.29 606.55 420.24 607.58 422.44C608.03 423.39 608.39 424.18 608.69 424.82C608.859 425.086 608.987 425.376 609.07 425.68Z" fill="#E0E0E0"/>
<path d="M694.55 392.33C694.289 392.501 694.007 392.635 693.71 392.73L691.23 393.73L682.08 397.31C674.35 400.31 663.72 404.66 651.99 409.43C640.26 414.2 629.58 418.43 621.78 421.3C617.89 422.74 614.72 423.87 612.52 424.61L609.98 425.44C609.688 425.557 609.382 425.634 609.07 425.67C609.334 425.497 609.62 425.359 609.92 425.26L612.4 424.26L621.55 420.67C629.28 417.67 639.9 413.33 651.64 408.55C663.38 403.77 674.05 399.55 681.84 396.68C685.74 395.25 688.9 394.12 691.1 393.38L693.64 392.54C693.932 392.427 694.238 392.356 694.55 392.33Z" fill="#E0E0E0"/>
<path d="M721.89 472C721.89 472.14 567.01 472.26 376.02 472.26C185.03 472.26 30.11 472.17 30.11 472C30.11 471.83 185 471.77 376 471.77C567 471.77 721.89 471.89 721.89 472Z" fill="#263238"/>
<path d="M611.98 136.79H142.97C134.923 136.79 128.4 143.313 128.4 151.36V451.64C128.4 459.687 134.923 466.21 142.97 466.21H611.98C620.027 466.21 626.55 459.687 626.55 451.64V151.36C626.55 143.313 620.027 136.79 611.98 136.79Z" fill="#455A64"/>
<path d="M108.93 444.94H648.64V455.94C648.64 460.661 646.765 465.188 643.427 468.526C640.088 471.865 635.561 473.74 630.84 473.74H126.73C122.009 473.74 117.482 471.865 114.144 468.526C110.805 465.188 108.93 460.661 108.93 455.94V444.94Z" fill="#455A64"/>
<path d="M611.79 149.88H141.77V428.07H611.79V149.88Z" fill="#263238"/>
<path d="M328.37 441.85L335.07 452.5H429.31L435.53 441.85H328.37Z" fill="#263238"/>
<path d="M599.8 159.3H154.72C152.914 159.3 151.45 160.764 151.45 162.57V423.92C151.45 425.726 152.914 427.19 154.72 427.19H599.8C601.606 427.19 603.07 425.726 603.07 423.92V162.57C603.07 160.764 601.606 159.3 599.8 159.3Z" fill="#EBEBEB"/>
<path d="M603.08 428.54H151.26L152.09 180.28H603.08V428.54Z" fill="white"/>
<path d="M189.29 169.64C189.29 170.354 189.078 171.052 188.682 171.646C188.285 172.239 187.721 172.702 187.061 172.975C186.402 173.248 185.676 173.32 184.976 173.181C184.275 173.041 183.632 172.697 183.127 172.193C182.622 171.688 182.279 171.045 182.139 170.344C182 169.644 182.072 168.918 182.345 168.258C182.618 167.599 183.081 167.035 183.674 166.638C184.268 166.242 184.966 166.03 185.68 166.03C186.154 166.03 186.624 166.123 187.061 166.305C187.499 166.486 187.897 166.752 188.233 167.087C188.568 167.423 188.834 167.82 189.015 168.258C189.197 168.696 189.29 169.166 189.29 169.64Z" fill="#263238"/>
<path d="M167.43 169.64C167.43 170.354 167.218 171.052 166.822 171.646C166.425 172.239 165.861 172.702 165.201 172.975C164.542 173.248 163.816 173.32 163.116 173.181C162.415 173.041 161.772 172.697 161.267 172.193C160.762 171.688 160.419 171.045 160.279 170.344C160.14 169.644 160.212 168.918 160.485 168.258C160.758 167.599 161.221 167.035 161.814 166.638C162.408 166.242 163.106 166.03 163.82 166.03C164.294 166.03 164.764 166.123 165.201 166.305C165.639 166.486 166.037 166.752 166.373 167.087C166.708 167.423 166.974 167.82 167.155 168.258C167.337 168.696 167.43 169.166 167.43 169.64Z" fill="#263238"/>
<path d="M178.36 169.64C178.36 170.354 178.148 171.053 177.751 171.647C177.354 172.24 176.789 172.703 176.129 172.976C175.469 173.249 174.743 173.32 174.042 173.18C173.341 173.04 172.698 172.695 172.194 172.189C171.689 171.683 171.346 171.039 171.208 170.338C171.07 169.637 171.143 168.911 171.418 168.252C171.692 167.592 172.157 167.029 172.752 166.634C173.347 166.238 174.046 166.028 174.76 166.03C175.716 166.033 176.631 166.414 177.306 167.091C177.981 167.768 178.36 168.684 178.36 169.64Z" fill="#263238"/>
<path d="M606.13 441.93C606.13 442.11 503.13 442.25 376.13 442.25C249.13 442.25 146.13 442.11 146.13 441.93C146.13 441.75 249.13 441.6 376.18 441.6C503.23 441.6 606.13 441.75 606.13 441.93Z" fill="#263238"/>
<path d="M603.15 383.47H151.45V428.4H603.15V383.47Z" fill="#5F12DA"/>
<path opacity="0.7" d="M603.15 383.47H151.45V428.4H603.15V383.47Z" fill="white"/>
<path d="M441.779 408.842C443.263 399.75 437.095 391.177 428.003 389.693C418.912 388.209 410.338 394.376 408.854 403.468C407.37 412.56 413.538 421.133 422.63 422.617C431.721 424.101 440.295 417.934 441.779 408.842Z" fill="#5F12DA"/>
<path d="M425.3 416.59C425.217 416.59 425.137 416.558 425.077 416.5C425.017 416.442 424.983 416.363 424.98 416.28V411.67C424.98 411.585 425.014 411.504 425.074 411.444C425.134 411.384 425.215 411.35 425.3 411.35C425.342 411.35 425.383 411.358 425.421 411.374C425.459 411.391 425.494 411.414 425.523 411.444C425.552 411.474 425.574 411.51 425.589 411.548C425.604 411.587 425.611 411.628 425.61 411.67V416.28C425.61 416.362 425.577 416.441 425.519 416.499C425.461 416.557 425.382 416.59 425.3 416.59Z" fill="white"/>
<path d="M353.188 408.835C354.672 399.743 348.505 391.17 339.413 389.686C330.321 388.202 321.748 394.369 320.264 403.461C318.78 412.553 324.947 421.126 334.039 422.61C343.131 424.094 351.704 417.927 353.188 408.835Z" fill="#5F12DA"/>
<path d="M331.41 407.77C331.084 407.77 330.765 407.673 330.493 407.492C330.222 407.311 330.01 407.053 329.886 406.751C329.761 406.45 329.728 406.118 329.792 405.798C329.855 405.478 330.013 405.184 330.243 404.953C330.474 404.722 330.768 404.565 331.088 404.502C331.408 404.438 331.74 404.471 332.041 404.596C332.343 404.72 332.601 404.932 332.782 405.203C332.963 405.475 333.06 405.794 333.06 406.12C333.061 406.337 333.02 406.552 332.937 406.753C332.855 406.954 332.733 407.136 332.58 407.29C332.426 407.443 332.244 407.565 332.043 407.647C331.842 407.73 331.627 407.771 331.41 407.77Z" fill="white"/>
<path d="M336.53 407.77C336.303 407.788 336.075 407.758 335.86 407.684C335.645 407.609 335.448 407.491 335.281 407.336C335.114 407.182 334.981 406.994 334.89 406.786C334.799 406.578 334.752 406.352 334.752 406.125C334.752 405.897 334.799 405.672 334.89 405.464C334.981 405.256 335.114 405.068 335.281 404.914C335.448 404.759 335.645 404.641 335.86 404.566C336.075 404.492 336.303 404.462 336.53 404.48C336.944 404.512 337.331 404.7 337.613 405.005C337.895 405.309 338.052 405.71 338.052 406.125C338.052 406.54 337.895 406.94 337.613 407.245C337.331 407.55 336.944 407.738 336.53 407.77Z" fill="white"/>
<path d="M342 407.77C341.674 407.77 341.355 407.673 341.083 407.492C340.812 407.311 340.6 407.053 340.476 406.751C340.351 406.45 340.318 406.118 340.382 405.798C340.445 405.478 340.603 405.184 340.833 404.953C341.064 404.722 341.358 404.565 341.678 404.502C341.998 404.438 342.33 404.471 342.631 404.596C342.933 404.72 343.191 404.932 343.372 405.203C343.553 405.475 343.65 405.794 343.65 406.12C343.65 406.558 343.476 406.977 343.167 407.287C342.857 407.596 342.438 407.77 342 407.77Z" fill="white"/>
<path d="M381 422.52C390.057 422.52 397.4 415.177 397.4 406.12C397.4 397.062 390.057 389.72 381 389.72C371.943 389.72 364.6 397.062 364.6 406.12C364.6 415.177 371.943 422.52 381 422.52Z" fill="#5F12DA"/>
<path d="M571.63 223.62C567.121 223.62 562.797 221.829 559.609 218.641C556.421 215.453 554.63 211.129 554.63 206.62C554.63 202.111 556.421 197.787 559.609 194.599C562.797 191.411 567.121 189.62 571.63 189.62C576.139 189.62 580.463 191.411 583.651 194.599C586.839 197.787 588.63 202.111 588.63 206.62C588.63 211.129 586.839 215.453 583.651 218.641C580.463 221.829 576.139 223.62 571.63 223.62Z" fill="#EBEBEB"/>
<path d="M571 206.76C571.618 206.563 572.146 206.152 572.488 205.6C572.829 205.048 572.962 204.392 572.863 203.751C572.763 203.109 572.437 202.525 571.945 202.102C571.452 201.68 570.824 201.448 570.175 201.448C569.526 201.448 568.898 201.68 568.405 202.102C567.912 202.525 567.587 203.109 567.487 203.751C567.388 204.392 567.521 205.048 567.862 205.6C568.204 206.152 568.732 206.563 569.35 206.76C568.237 206.932 567.222 207.496 566.488 208.35C565.755 209.205 565.351 210.294 565.35 211.42H574.81C574.817 210.321 574.44 209.255 573.744 208.404C573.049 207.553 572.078 206.972 571 206.76Z" fill="#263238"/>
<path d="M576.34 207.56C576.288 207.561 576.237 207.552 576.189 207.533C576.141 207.514 576.098 207.485 576.061 207.449C576.025 207.412 575.996 207.369 575.977 207.321C575.958 207.273 575.949 207.222 575.95 207.17V202.82C575.95 202.717 575.991 202.617 576.064 202.544C576.137 202.471 576.237 202.43 576.34 202.43C576.443 202.43 576.543 202.471 576.616 202.544C576.689 202.617 576.73 202.717 576.73 202.82V207.17C576.731 207.222 576.722 207.273 576.703 207.321C576.684 207.369 576.655 207.412 576.619 207.449C576.582 207.485 576.539 207.514 576.491 207.533C576.443 207.552 576.392 207.561 576.34 207.56Z" fill="#263238"/>
<path d="M578.52 205.39H574.16C574.057 205.387 573.96 205.346 573.887 205.273C573.814 205.2 573.773 205.103 573.77 205C573.77 204.897 573.811 204.797 573.884 204.724C573.957 204.651 574.057 204.61 574.16 204.61H578.52C578.623 204.61 578.723 204.651 578.796 204.724C578.869 204.797 578.91 204.897 578.91 205C578.907 205.103 578.866 205.2 578.793 205.273C578.72 205.346 578.623 205.387 578.52 205.39Z" fill="#263238"/>
<path d="M260.33 428.48L151.45 427.96V180.22H260.33V428.48Z" fill="#FAFAFA"/>
<path d="M260.33 426.47C260.18 426.47 260.07 371.34 260.07 303.35C260.07 235.36 260.18 180.22 260.33 180.22C260.48 180.22 260.59 235.34 260.59 303.35C260.59 371.36 260.47 426.47 260.33 426.47Z" fill="#263238"/>
<path d="M257 380.84C257 380.98 233.83 381.1 205.26 381.1C176.69 381.1 153.5 380.98 153.5 380.84C153.5 380.7 176.67 380.57 205.26 380.57C233.85 380.57 257 380.69 257 380.84Z" fill="#E0E0E0"/>
<path d="M233 244.59V247H232.75V244.8H232.18V244.58L233 244.59Z" fill="#E0E0E0"/>
<path d="M234.27 244.59V247H234V244.8H233.43V244.58L234.27 244.59Z" fill="#E0E0E0"/>
<path d="M234.85 245.36C234.85 245.336 234.855 245.311 234.865 245.289C234.874 245.266 234.888 245.246 234.906 245.229C234.924 245.212 234.945 245.199 234.968 245.191C234.991 245.182 235.016 245.179 235.04 245.18C235.064 245.179 235.088 245.182 235.111 245.191C235.133 245.199 235.154 245.212 235.171 245.229C235.188 245.246 235.201 245.267 235.209 245.289C235.218 245.312 235.221 245.336 235.22 245.36C235.221 245.384 235.218 245.409 235.209 245.432C235.201 245.455 235.188 245.476 235.171 245.494C235.154 245.512 235.134 245.526 235.111 245.535C235.089 245.545 235.064 245.55 235.04 245.55C234.99 245.55 234.941 245.53 234.906 245.494C234.87 245.459 234.85 245.41 234.85 245.36ZM234.85 246.84C234.85 246.79 234.87 246.741 234.906 246.706C234.941 246.67 234.99 246.65 235.04 246.65C235.09 246.65 235.139 246.67 235.174 246.706C235.21 246.741 235.23 246.79 235.23 246.84C235.23 246.89 235.21 246.939 235.174 246.974C235.139 247.01 235.09 247.03 235.04 247.03C234.99 247.03 234.941 247.01 234.906 246.974C234.87 246.939 234.85 246.89 234.85 246.84Z" fill="#E0E0E0"/>
<path d="M237.24 246.79V247H235.54V246.83L236.54 245.83C236.81 245.56 236.87 245.39 236.87 245.23C236.87 245.07 236.67 244.77 236.3 244.77C236.175 244.763 236.051 244.784 235.935 244.83C235.819 244.877 235.715 244.949 235.63 245.04L235.46 244.89C235.569 244.772 235.702 244.679 235.851 244.619C236 244.558 236.16 244.531 236.32 244.54C236.81 244.54 237.12 244.79 237.12 245.2C237.114 245.348 237.075 245.494 237.006 245.625C236.937 245.757 236.839 245.871 236.72 245.96L235.9 246.77L237.24 246.79Z" fill="#E0E0E0"/>
<path d="M239.2 246.3C239.2 246.71 238.91 247.03 238.32 247.03C238.001 247.04 237.69 246.93 237.45 246.72L237.57 246.52C237.668 246.618 237.785 246.694 237.915 246.744C238.044 246.794 238.182 246.816 238.32 246.81C238.73 246.81 238.95 246.6 238.95 246.31C238.95 246.02 238.75 245.8 238.14 245.8H237.62L237.74 244.59H239.07V244.81H238L237.92 245.58H238.23C238.92 245.58 239.2 245.87 239.2 246.3Z" fill="#E0E0E0"/>
<path d="M235.49 357.71V360.14H235.24V357.93H234.67V357.71H235.49Z" fill="#E0E0E0"/>
<path d="M236.74 357.71V360.14H236.49V357.93H235.92V357.71H236.74Z" fill="#E0E0E0"/>
<path d="M237.33 358.49C237.329 358.466 237.332 358.441 237.341 358.418C237.349 358.395 237.362 358.374 237.379 358.356C237.396 358.338 237.416 358.324 237.439 358.315C237.461 358.305 237.485 358.3 237.51 358.3C237.56 358.3 237.609 358.32 237.644 358.356C237.68 358.391 237.7 358.44 237.7 358.49C237.698 358.54 237.677 358.587 237.642 358.622C237.607 358.657 237.56 358.678 237.51 358.68C237.461 358.677 237.416 358.656 237.382 358.621C237.349 358.586 237.33 358.539 237.33 358.49ZM237.33 359.96C237.33 359.912 237.349 359.866 237.383 359.833C237.416 359.799 237.462 359.78 237.51 359.78C237.559 359.78 237.606 359.799 237.641 359.832C237.676 359.866 237.697 359.911 237.7 359.96C237.7 360.011 237.68 360.061 237.645 360.098C237.61 360.135 237.561 360.157 237.51 360.16C237.466 360.158 237.424 360.141 237.391 360.112C237.359 360.083 237.337 360.043 237.33 360V359.96Z" fill="#E0E0E0"/>
<path d="M240.12 359.5H239.64V360.14H239.39V359.5H238V359.32L239.28 357.71H239.56L238.32 359.28H239.32V358.72H239.57V359.28H240.05L240.12 359.5Z" fill="#E0E0E0"/>
<path d="M242 359.42C242 359.84 241.71 360.16 241.12 360.16C240.801 360.17 240.49 360.06 240.25 359.85L240.37 359.65C240.575 359.835 240.844 359.935 241.12 359.93C241.53 359.93 241.75 359.73 241.75 359.43C241.75 359.13 241.55 358.93 240.94 358.93H240.42L240.55 357.71H241.87V357.93H240.76L240.68 358.7H241C241.7 358.7 242 359 242 359.42Z" fill="#E0E0E0"/>
<path d="M220.08 239.45H171.52L171.38 218.33C171.36 215.525 171.896 212.745 172.955 210.148C174.015 207.551 175.577 205.19 177.554 203.2C179.53 201.21 181.88 199.63 184.469 198.553C187.059 197.475 189.835 196.92 192.64 196.92H220.08C225.721 196.92 231.131 199.161 235.12 203.15C239.109 207.139 241.35 212.549 241.35 218.19C241.347 223.829 239.105 229.237 235.117 233.224C231.128 237.21 225.719 239.45 220.08 239.45Z" fill="#EBEBEB"/>
<path d="M242.8 417.42H165.8C163.302 417.417 160.908 416.424 159.142 414.658C157.376 412.892 156.383 410.497 156.38 408V407.59C156.383 405.092 157.376 402.698 159.142 400.932C160.908 399.166 163.302 398.173 165.8 398.17H242.8C245.298 398.173 247.692 399.166 249.458 400.932C251.224 402.698 252.217 405.092 252.22 407.59V408C252.217 410.497 251.224 412.892 249.458 414.658C247.692 416.424 245.298 417.417 242.8 417.42ZM165.8 398.76C163.459 398.763 161.215 399.694 159.559 401.349C157.904 403.005 156.973 405.249 156.97 407.59V408C156.973 410.341 157.904 412.585 159.559 414.241C161.215 415.896 163.459 416.827 165.8 416.83H242.8C245.141 416.827 247.385 415.896 249.041 414.241C250.696 412.585 251.627 410.341 251.63 408V407.59C251.627 405.249 250.696 403.005 249.041 401.349C247.385 399.694 245.141 398.763 242.8 398.76H165.8Z" fill="#E0E0E0"/>
<path d="M248.05 407.5C248.052 408.448 247.773 409.375 247.248 410.164C246.722 410.953 245.975 411.568 245.1 411.932C244.225 412.297 243.261 412.393 242.332 412.209C241.402 412.025 240.547 411.57 239.876 410.901C239.206 410.231 238.748 409.378 238.563 408.448C238.377 407.519 238.471 406.555 238.834 405.679C239.196 404.803 239.81 404.055 240.598 403.528C241.386 403.001 242.312 402.72 243.26 402.72C243.889 402.719 244.511 402.841 245.092 403.081C245.673 403.321 246.202 403.672 246.646 404.116C247.091 404.56 247.444 405.088 247.685 405.668C247.926 406.249 248.05 406.871 248.05 407.5Z" fill="#5F12DA"/>
<path d="M243.14 410.46C243.11 410.457 243.081 410.445 243.058 410.425C243.035 410.406 243.018 410.379 243.01 410.35L242.39 408.08L240.27 407.33C240.24 407.321 240.214 407.302 240.196 407.277C240.178 407.252 240.169 407.221 240.17 407.19C240.171 407.161 240.181 407.132 240.199 407.109C240.217 407.085 240.242 407.068 240.27 407.06L245.27 405.27C245.294 405.256 245.322 405.249 245.35 405.249C245.378 405.249 245.406 405.256 245.43 405.27C245.448 405.293 245.458 405.321 245.458 405.35C245.458 405.379 245.448 405.407 245.43 405.43L243.26 410.33C243.258 410.362 243.245 410.393 243.223 410.416C243.201 410.44 243.172 410.455 243.14 410.46ZM240.75 407.19L242.56 407.83C242.602 407.85 242.634 407.886 242.65 407.93L243.17 409.87L245.03 405.66L240.75 407.19Z" fill="white"/>
<path d="M242.51 408.12C242.468 408.118 242.429 408.1 242.4 408.07C242.373 408.042 242.357 408.004 242.357 407.965C242.357 407.926 242.373 407.888 242.4 407.86L245.2 405.3C245.23 405.279 245.266 405.27 245.302 405.274C245.338 405.279 245.372 405.296 245.396 405.323C245.421 405.349 245.434 405.384 245.435 405.421C245.436 405.457 245.423 405.492 245.4 405.52L242.6 408.08C242.576 408.104 242.544 408.118 242.51 408.12Z" fill="white"/>
<path d="M178.44 406.2H177.52V406H179.65V406.24H178.72V408.63H178.44V406.2Z" fill="#263238"/>
<path d="M181.57 406.62L180.57 408.83C180.534 408.977 180.449 409.108 180.329 409.2C180.209 409.293 180.061 409.342 179.91 409.34C179.733 409.345 179.56 409.28 179.43 409.16L179.56 408.96C179.605 409.01 179.661 409.049 179.723 409.075C179.786 409.101 179.853 409.113 179.92 409.11C180.09 409.11 180.21 409.03 180.33 408.78L180.41 408.59L179.53 406.59H179.81L180.55 408.27L181.3 406.59L181.57 406.62Z" fill="#263238"/>
<path d="M184 407.6C184 407.865 183.895 408.12 183.707 408.307C183.52 408.495 183.265 408.6 183 408.6C182.852 408.605 182.705 408.572 182.574 408.503C182.442 408.435 182.331 408.334 182.25 408.21V409.31H182V406.61H182.25V407C182.329 406.87 182.44 406.763 182.574 406.691C182.708 406.619 182.858 406.584 183.01 406.59C183.141 406.591 183.271 406.618 183.392 406.67C183.513 406.721 183.622 406.796 183.714 406.89C183.806 406.984 183.879 407.095 183.928 407.217C183.977 407.338 184.001 407.469 184 407.6ZM183.73 407.6C183.722 407.455 183.672 407.316 183.586 407.199C183.499 407.083 183.38 406.994 183.244 406.945C183.108 406.895 182.96 406.887 182.819 406.92C182.678 406.954 182.55 407.028 182.451 407.134C182.352 407.24 182.286 407.373 182.262 407.516C182.237 407.659 182.255 407.806 182.314 407.939C182.372 408.071 182.469 408.184 182.591 408.262C182.713 408.341 182.855 408.382 183 408.38C183.096 408.374 183.19 408.348 183.276 408.306C183.362 408.263 183.439 408.204 183.502 408.131C183.565 408.059 183.614 407.975 183.644 407.883C183.675 407.792 183.687 407.696 183.68 407.6H183.73Z" fill="#263238"/>
<path d="M186.22 407.69H184.56C184.573 407.885 184.662 408.066 184.808 408.195C184.954 408.325 185.145 408.391 185.34 408.38C185.454 408.383 185.568 408.361 185.673 408.316C185.778 408.271 185.873 408.204 185.95 408.12L186.1 408.29C185.97 408.466 185.786 408.595 185.576 408.656C185.366 408.717 185.142 408.708 184.937 408.63C184.733 408.552 184.56 408.409 184.445 408.222C184.33 408.036 184.279 407.818 184.3 407.6C184.3 407.335 184.405 407.08 184.593 406.893C184.78 406.705 185.035 406.6 185.3 406.6C185.434 406.591 185.568 406.611 185.693 406.658C185.818 406.705 185.932 406.779 186.027 406.873C186.121 406.968 186.195 407.082 186.242 407.207C186.289 407.332 186.309 407.466 186.3 407.6L186.22 407.69ZM184.56 407.49H186C185.979 407.317 185.896 407.159 185.766 407.043C185.636 406.928 185.469 406.864 185.295 406.864C185.121 406.864 184.954 406.928 184.824 407.043C184.694 407.159 184.611 407.317 184.59 407.49H184.56Z" fill="#263238"/>
<path d="M189.25 407.37V408.59H189V408.28C188.928 408.392 188.826 408.482 188.706 408.54C188.586 408.598 188.453 408.622 188.32 408.61C187.87 408.61 187.6 408.38 187.6 408.04C187.6 407.7 187.79 407.48 188.36 407.48H189V407.36C189.007 407.286 188.997 407.212 188.971 407.142C188.944 407.073 188.903 407.01 188.849 406.959C188.795 406.908 188.73 406.87 188.659 406.847C188.588 406.825 188.513 406.819 188.44 406.83C188.198 406.828 187.964 406.913 187.78 407.07L187.66 406.87C187.887 406.69 188.17 406.595 188.46 406.6C188.565 406.588 188.671 406.599 188.772 406.633C188.872 406.667 188.963 406.723 189.039 406.797C189.114 406.87 189.173 406.96 189.209 407.059C189.246 407.159 189.26 407.265 189.25 407.37ZM189 408V407.68H188.38C187.99 407.68 187.87 407.83 187.87 408.03C187.87 408.23 188.05 408.4 188.37 408.4C188.504 408.408 188.636 408.373 188.749 408.301C188.862 408.23 188.95 408.124 189 408Z" fill="#263238"/>
<path d="M194.22 407.45V408.59H194V407.47C194 407.06 193.79 406.84 193.44 406.84C193.346 406.835 193.253 406.85 193.166 406.885C193.079 406.921 193 406.974 192.936 407.043C192.872 407.112 192.824 407.194 192.796 407.283C192.767 407.372 192.758 407.467 192.77 407.56V408.56H192.51V407.44C192.51 407.03 192.3 406.81 191.94 406.81C191.846 406.805 191.753 406.82 191.666 406.855C191.579 406.891 191.5 406.944 191.436 407.013C191.372 407.082 191.324 407.164 191.296 407.253C191.267 407.342 191.258 407.437 191.27 407.53V408.53H191V406.53H191.25V407C191.327 406.877 191.435 406.777 191.563 406.71C191.692 406.644 191.835 406.612 191.98 406.62C192.126 406.608 192.272 406.642 192.398 406.717C192.523 406.793 192.622 406.906 192.68 407.04C192.76 406.906 192.874 406.796 193.012 406.722C193.149 406.648 193.304 406.613 193.46 406.62C193.566 406.618 193.672 406.639 193.77 406.681C193.868 406.723 193.956 406.785 194.027 406.863C194.099 406.942 194.154 407.035 194.187 407.136C194.22 407.237 194.231 407.344 194.22 407.45Z" fill="#263238"/>
<path d="M196.68 407.69H195C195.013 407.885 195.102 408.066 195.248 408.195C195.394 408.325 195.585 408.391 195.78 408.38C195.894 408.383 196.008 408.361 196.113 408.316C196.218 408.271 196.313 408.204 196.39 408.12L196.54 408.29C196.41 408.466 196.226 408.595 196.016 408.656C195.806 408.717 195.582 408.708 195.377 408.63C195.173 408.552 195 408.409 194.885 408.222C194.77 408.036 194.719 407.818 194.74 407.6C194.74 407.335 194.845 407.08 195.033 406.893C195.22 406.705 195.475 406.6 195.74 406.6C195.874 406.591 196.008 406.611 196.133 406.658C196.258 406.705 196.372 406.779 196.467 406.873C196.561 406.968 196.635 407.082 196.682 407.207C196.729 407.332 196.749 407.466 196.74 407.6L196.68 407.69ZM195.02 407.49H196.42C196.417 407.401 196.397 407.313 196.361 407.231C196.324 407.15 196.272 407.076 196.207 407.015C196.142 406.954 196.065 406.906 195.982 406.874C195.898 406.842 195.809 406.827 195.72 406.83C195.629 406.826 195.539 406.84 195.454 406.871C195.368 406.902 195.29 406.949 195.223 407.011C195.156 407.072 195.102 407.146 195.064 407.228C195.026 407.31 195.004 407.399 195 407.49H195.02Z" fill="#263238"/>
<path d="M197 408.37L197.12 408.16C197.329 408.304 197.577 408.38 197.83 408.38C198.2 408.38 198.36 408.25 198.36 408.06C198.36 407.54 197.07 407.95 197.07 407.16C197.07 406.84 197.35 406.6 197.86 406.6C198.102 406.596 198.341 406.658 198.55 406.78L198.44 407C198.269 406.885 198.066 406.825 197.86 406.83C197.5 406.83 197.34 406.97 197.34 407.16C197.34 407.69 198.62 407.29 198.62 408.05C198.62 408.39 198.32 408.61 197.81 408.61C197.521 408.621 197.236 408.537 197 408.37Z" fill="#263238"/>
<path d="M198.79 408.37L198.91 408.16C199.116 408.302 199.36 408.379 199.61 408.38C199.99 408.38 200.14 408.25 200.14 408.06C200.14 407.54 198.86 407.95 198.86 407.16C198.86 406.84 199.14 406.6 199.64 406.6C199.885 406.595 200.128 406.657 200.34 406.78L200.23 407C200.056 406.883 199.85 406.823 199.64 406.83C199.29 406.83 199.13 406.97 199.13 407.16C199.13 407.69 200.41 407.29 200.41 408.05C200.41 408.39 200.11 408.61 199.6 408.61C199.311 408.621 199.026 408.537 198.79 408.37Z" fill="#263238"/>
<path d="M202.4 407.37V408.59H202.14V408.28C202.068 408.392 201.966 408.482 201.846 408.54C201.726 408.598 201.593 408.622 201.46 408.61C201.01 408.61 200.74 408.38 200.74 408.04C200.74 407.7 200.93 407.48 201.5 407.48H202.13V407.36C202.137 407.286 202.127 407.212 202.101 407.142C202.074 407.072 202.033 407.01 201.979 406.959C201.925 406.908 201.86 406.87 201.789 406.847C201.718 406.825 201.643 406.819 201.57 406.83C201.328 406.828 201.094 406.913 200.91 407.07L200.79 406.87C201.02 406.688 201.307 406.592 201.6 406.6C201.706 406.586 201.813 406.596 201.915 406.629C202.016 406.663 202.109 406.718 202.185 406.792C202.262 406.866 202.322 406.957 202.359 407.057C202.396 407.157 202.41 407.264 202.4 407.37ZM202.13 408V407.68H201.51C201.13 407.68 201 407.83 201 408.03C201 408.23 201.19 408.4 201.5 408.4C201.634 408.409 201.767 408.375 201.881 408.303C201.994 408.231 202.081 408.125 202.13 408Z" fill="#263238"/>
<path d="M205 406.62V408.35C205.022 408.486 205.012 408.626 204.97 408.758C204.928 408.889 204.855 409.009 204.757 409.107C204.659 409.204 204.539 409.278 204.408 409.32C204.276 409.362 204.136 409.372 204 409.35C203.668 409.362 203.342 409.255 203.08 409.05L203.22 408.84C203.439 409.022 203.716 409.118 204 409.11C204.5 409.11 204.73 408.89 204.73 408.4V408.14C204.644 408.266 204.528 408.369 204.391 408.437C204.254 408.505 204.103 408.537 203.95 408.53C203.801 408.573 203.644 408.582 203.491 408.554C203.338 408.526 203.194 408.463 203.07 408.37C202.946 408.277 202.845 408.156 202.776 408.017C202.706 407.878 202.67 407.725 202.67 407.57C202.67 407.415 202.706 407.262 202.776 407.123C202.845 406.984 202.946 406.863 203.07 406.77C203.194 406.677 203.338 406.614 203.491 406.586C203.644 406.558 203.801 406.566 203.95 406.61C204.105 406.603 204.259 406.636 204.398 406.706C204.536 406.776 204.654 406.881 204.74 407.01V406.63L205 406.62ZM204.74 407.56C204.746 407.41 204.707 407.263 204.628 407.135C204.55 407.008 204.435 406.907 204.298 406.846C204.162 406.785 204.01 406.765 203.863 406.791C203.716 406.816 203.579 406.885 203.471 406.989C203.363 407.093 203.289 407.226 203.257 407.372C203.226 407.518 203.239 407.671 203.295 407.81C203.35 407.948 203.446 408.067 203.57 408.151C203.694 408.235 203.84 408.28 203.99 408.28C204.084 408.28 204.177 408.261 204.264 408.225C204.351 408.189 204.43 408.135 204.496 408.068C204.562 408.001 204.614 407.922 204.649 407.835C204.684 407.747 204.701 407.654 204.7 407.56H204.74Z" fill="#263238"/>
<path d="M207.43 407.69H205.78C205.785 407.787 205.809 407.882 205.852 407.969C205.894 408.056 205.953 408.134 206.025 408.199C206.098 408.263 206.183 408.312 206.274 408.343C206.366 408.374 206.463 408.387 206.56 408.38C206.673 408.383 206.785 408.361 206.889 408.316C206.992 408.271 207.085 408.204 207.16 408.12L207.31 408.29C207.213 408.394 207.096 408.477 206.965 408.532C206.833 408.587 206.692 408.614 206.55 408.61C206.285 408.61 206.03 408.505 205.843 408.317C205.655 408.13 205.55 407.875 205.55 407.61C205.51 407.462 205.504 407.306 205.534 407.155C205.563 407.004 205.627 406.862 205.721 406.74C205.814 406.618 205.934 406.519 206.072 406.451C206.21 406.383 206.361 406.348 206.515 406.348C206.669 406.348 206.82 406.383 206.958 406.451C207.096 406.519 207.216 406.618 207.309 406.74C207.403 406.862 207.467 407.004 207.496 407.155C207.526 407.306 207.52 407.462 207.48 407.61C207.48 407.61 207.43 407.66 207.43 407.69ZM205.78 407.49H207.18C207.18 407.304 207.106 407.126 206.975 406.995C206.844 406.864 206.666 406.79 206.48 406.79C206.294 406.79 206.116 406.864 205.985 406.995C205.854 407.126 205.78 407.304 205.78 407.49Z" fill="#263238"/>
<path d="M207.81 408.41C207.81 408.357 207.831 408.306 207.869 408.269C207.906 408.231 207.957 408.21 208.01 408.21C208.063 408.21 208.114 408.231 208.151 408.269C208.189 408.306 208.21 408.357 208.21 408.41C208.21 408.463 208.189 408.514 208.151 408.551C208.114 408.589 208.063 408.61 208.01 408.61C207.957 408.61 207.906 408.589 207.869 408.551C207.831 408.514 207.81 408.463 207.81 408.41Z" fill="#263238"/>
<path d="M208.61 408.41C208.61 408.357 208.631 408.306 208.669 408.269C208.706 408.231 208.757 408.21 208.81 408.21C208.863 408.21 208.914 408.231 208.951 408.269C208.989 408.306 209.01 408.357 209.01 408.41C209.01 408.463 208.989 408.514 208.951 408.551C208.914 408.589 208.863 408.61 208.81 408.61C208.757 408.61 208.706 408.589 208.669 408.551C208.631 408.514 208.61 408.463 208.61 408.41Z" fill="#263238"/>
<path d="M209.4 408.41C209.399 408.383 209.403 408.356 209.412 408.33C209.422 408.305 209.436 408.282 209.455 408.262C209.474 408.242 209.496 408.227 209.521 408.216C209.546 408.205 209.573 408.2 209.6 408.2C209.631 408.193 209.663 408.193 209.693 408.2C209.724 408.208 209.752 408.222 209.777 408.241C209.801 408.261 209.821 408.286 209.835 408.314C209.848 408.343 209.856 408.374 209.856 408.405C209.856 408.436 209.848 408.467 209.835 408.496C209.821 408.524 209.801 408.549 209.777 408.569C209.752 408.588 209.724 408.602 209.693 408.61C209.663 408.617 209.631 408.617 209.6 408.61C209.547 408.61 209.496 408.589 209.459 408.551C209.421 408.514 209.4 408.463 209.4 408.41Z" fill="#263238"/>
<path d="M165.73 409.44C165.552 409.652 165.298 409.785 165.022 409.809C164.746 409.834 164.472 409.748 164.26 409.57C164.048 409.392 163.915 409.138 163.891 408.862C163.866 408.586 163.952 408.312 164.13 408.1L166.29 405.52C166.346 405.443 166.418 405.38 166.501 405.333C166.583 405.287 166.675 405.258 166.77 405.25C166.864 405.241 166.96 405.253 167.049 405.284C167.139 405.315 167.221 405.365 167.29 405.43C167.425 405.546 167.509 405.711 167.524 405.889C167.539 406.066 167.484 406.243 167.37 406.38L165.54 408.57C165.471 408.622 165.387 408.65 165.3 408.65C165.213 408.65 165.129 408.622 165.06 408.57C164.994 408.511 164.95 408.432 164.933 408.345C164.917 408.258 164.93 408.169 164.97 408.09L166.37 406.4L166.18 406.24L164.83 407.86L164.77 407.93C164.691 408.058 164.661 408.21 164.685 408.359C164.709 408.508 164.785 408.643 164.9 408.74C165.013 408.837 165.156 408.891 165.305 408.891C165.454 408.891 165.597 408.837 165.71 408.74L167.5 406.6C167.65 406.412 167.72 406.173 167.696 405.933C167.672 405.694 167.555 405.474 167.37 405.32C167.185 405.165 166.948 405.087 166.707 405.104C166.466 405.121 166.241 405.231 166.08 405.41L163.83 408.11C163.613 408.375 163.509 408.716 163.543 409.057C163.577 409.399 163.745 409.712 164.01 409.93C164.275 410.147 164.616 410.251 164.957 410.217C165.299 410.183 165.613 410.015 165.83 409.75L167.64 407.57L167.45 407.41L165.73 409.44Z" fill="#E0E0E0"/>
<path d="M226.11 208.59C226.11 208.68 216.93 208.75 205.61 208.75C194.29 208.75 185.11 208.68 185.11 208.59C185.11 208.5 194.28 208.43 205.61 208.43C216.94 208.43 226.11 208.5 226.11 208.59Z" fill="#263238"/>
<path d="M226.11 213.66C226.11 213.75 216.93 213.82 205.61 213.82C194.29 213.82 185.11 213.75 185.11 213.66C185.11 213.57 194.28 213.5 205.61 213.5C216.94 213.5 226.11 213.57 226.11 213.66Z" fill="#263238"/>
<path d="M226.11 218.73C226.11 218.82 216.93 218.89 205.61 218.89C194.29 218.89 185.11 218.82 185.11 218.73C185.11 218.64 194.28 218.57 205.61 218.57C216.94 218.57 226.11 218.64 226.11 218.73Z" fill="#263238"/>
<path d="M226.11 223.8C226.11 223.89 216.93 223.96 205.61 223.96C194.29 223.96 185.11 223.89 185.11 223.8C185.11 223.71 194.28 223.64 205.61 223.64C216.94 223.64 226.11 223.71 226.11 223.8Z" fill="#263238"/>
<path d="M205.68 228.87C205.413 228.921 205.141 228.941 204.87 228.93L202.67 228.99C200.8 228.99 198.23 228.99 195.39 228.99C192.55 228.99 189.98 228.99 188.12 228.99L185.91 228.93C185.642 228.942 185.373 228.922 185.11 228.87C185.374 228.825 185.642 228.805 185.91 228.81L188.12 228.76C189.98 228.76 192.55 228.76 195.39 228.76C198.23 228.76 200.8 228.76 202.67 228.76L204.87 228.81C205.141 228.805 205.412 228.825 205.68 228.87Z" fill="#263238"/>
<path d="M182.26 255.07H212.26C213.697 255.063 215.121 255.342 216.451 255.889C217.78 256.435 218.987 257.24 220.003 258.257C221.02 259.273 221.825 260.48 222.371 261.809C222.918 263.139 223.197 264.563 223.19 266V267.33C223.19 270.216 222.044 272.983 220.003 275.023C217.963 277.064 215.196 278.21 212.31 278.21H171.38V266C171.373 264.567 171.65 263.147 172.194 261.821C172.738 260.495 173.538 259.29 174.549 258.274C175.56 257.259 176.762 256.453 178.085 255.903C179.408 255.353 180.827 255.07 182.26 255.07Z" fill="#EBEBEB"/>
<path d="M215.31 263.84C215.31 263.93 207.24 264.01 197.31 264.01C187.38 264.01 179.31 263.93 179.31 263.84C179.31 263.75 187.38 263.68 197.31 263.68C207.24 263.68 215.31 263.76 215.31 263.84Z" fill="#263238"/>
<path d="M201.27 269.47C200.986 269.515 200.698 269.535 200.41 269.53L198.05 269.58C196.05 269.58 193.3 269.63 190.26 269.63C187.22 269.63 184.47 269.63 182.48 269.58L180.12 269.53C179.829 269.535 179.538 269.515 179.25 269.47C179.537 269.418 179.828 269.394 180.12 269.4H182.48C184.48 269.4 187.22 269.4 190.26 269.4C193.3 269.4 196.06 269.4 198.05 269.4H200.41C200.698 269.394 200.986 269.418 201.27 269.47Z" fill="#263238"/>
<path d="M173.55 327.5V329.93H173.3V327.72H172.73V327.5H173.55Z" fill="#E0E0E0"/>
<path d="M174.8 327.5V329.93H174.55V327.72H174V327.5H174.8Z" fill="#E0E0E0"/>
<path d="M175.38 328.28C175.379 328.255 175.382 328.229 175.392 328.206C175.401 328.182 175.414 328.16 175.432 328.142C175.45 328.124 175.472 328.11 175.496 328.101C175.519 328.092 175.545 328.089 175.57 328.09C175.62 328.09 175.669 328.11 175.704 328.146C175.74 328.181 175.76 328.23 175.76 328.28C175.76 328.33 175.74 328.379 175.704 328.414C175.669 328.45 175.62 328.47 175.57 328.47C175.545 328.471 175.519 328.467 175.496 328.458C175.472 328.449 175.45 328.435 175.432 328.418C175.414 328.4 175.401 328.378 175.392 328.354C175.382 328.331 175.379 328.305 175.38 328.28ZM175.38 329.76C175.379 329.735 175.382 329.709 175.392 329.686C175.401 329.662 175.414 329.64 175.432 329.622C175.45 329.604 175.472 329.591 175.496 329.581C175.519 329.572 175.545 329.569 175.57 329.57C175.595 329.57 175.619 329.575 175.641 329.585C175.664 329.594 175.684 329.608 175.701 329.626C175.718 329.644 175.731 329.665 175.739 329.688C175.748 329.711 175.751 329.736 175.75 329.76C175.757 329.788 175.757 329.817 175.75 329.845C175.744 329.873 175.732 329.899 175.714 329.921C175.696 329.944 175.673 329.962 175.648 329.974C175.622 329.987 175.594 329.993 175.565 329.993C175.536 329.993 175.508 329.987 175.482 329.974C175.457 329.962 175.434 329.944 175.416 329.921C175.398 329.899 175.386 329.873 175.38 329.845C175.373 329.817 175.373 329.788 175.38 329.76Z" fill="#E0E0E0"/>
<path d="M177.72 329.23C177.72 329.64 177.42 329.95 176.84 329.95C176.518 329.96 176.204 329.85 175.96 329.64L176.09 329.44C176.293 329.629 176.563 329.729 176.84 329.72C177.24 329.72 177.46 329.53 177.46 329.23C177.46 328.93 177.26 328.75 176.81 328.75H176.63V328.57L177.31 327.72H176.06V327.5H177.63V327.68L176.94 328.54C177.46 328.57 177.72 328.84 177.72 329.23Z" fill="#E0E0E0"/>
<path d="M178.07 328.72C178.07 327.94 178.47 327.48 179.07 327.48C179.67 327.48 180.07 327.94 180.07 328.72C180.07 329.5 179.66 329.95 179.07 329.95C178.48 329.95 178.07 329.49 178.07 328.72ZM179.75 328.72C179.75 328.07 179.46 327.72 179.04 327.72C178.62 327.72 178.32 328.08 178.32 328.72C178.32 329.36 178.61 329.72 179.04 329.72C179.47 329.72 179.75 329.36 179.75 328.72Z" fill="#E0E0E0"/>
<path d="M243.39 321.29H180.21C177.324 321.29 174.557 320.144 172.517 318.103C170.476 316.063 169.33 313.296 169.33 310.41V309.08C169.33 306.194 170.476 303.427 172.517 301.387C174.557 299.346 177.324 298.2 180.21 298.2H232.51C235.396 298.2 238.163 299.346 240.203 301.387C242.244 303.427 243.39 306.194 243.39 309.08V321.29Z" fill="#EBEBEB"/>
<path d="M231.39 306.73C231.39 306.82 220.01 306.89 205.97 306.89C191.93 306.89 180.54 306.82 180.54 306.73C180.54 306.64 191.93 306.57 205.97 306.57C220.01 306.57 231.39 306.64 231.39 306.73Z" fill="#263238"/>
<path d="M231.39 312.21C231.39 312.3 220.01 312.37 205.97 312.37C191.93 312.37 180.54 312.3 180.54 312.21C180.54 312.12 191.93 312.05 205.97 312.05C220.01 312.05 231.39 312.12 231.39 312.21Z" fill="#263238"/>
<path d="M180.37 341.32H210.37C213.256 341.32 216.023 342.466 218.063 344.507C220.104 346.547 221.25 349.314 221.25 352.2V353.53C221.25 356.416 220.104 359.183 218.063 361.223C216.023 363.264 213.256 364.41 210.37 364.41H169.49V352.21C169.489 350.78 169.769 349.365 170.315 348.043C170.862 346.722 171.663 345.522 172.673 344.51C173.684 343.499 174.883 342.697 176.204 342.149C177.525 341.602 178.94 341.32 180.37 341.32Z" fill="#EBEBEB"/>
<path d="M214.47 349.72C214.47 349.81 205.93 349.88 195.39 349.88C184.85 349.88 176.32 349.81 176.32 349.72C176.32 349.63 184.86 349.56 195.39 349.56C205.92 349.56 214.47 349.63 214.47 349.72Z" fill="#263238"/>
<path d="M200.85 355.2C200.521 355.262 200.185 355.285 199.85 355.27L197.22 355.32C195 355.32 191.93 355.37 188.55 355.37C185.17 355.37 182.09 355.37 179.87 355.32L177.24 355.27C176.905 355.285 176.57 355.262 176.24 355.2C176.571 355.153 176.906 355.133 177.24 355.14L179.87 355.09C182.09 355.09 185.16 355.09 188.55 355.09C191.94 355.09 195 355.09 197.22 355.09L199.85 355.14C200.184 355.133 200.519 355.153 200.85 355.2Z" fill="#263238"/>
<path d="M718.49 183.64C717.39 174.73 709.86 166.43 700.88 166.42C695.59 166.42 690.55 169.19 686.88 173.06C685.594 174.367 684.41 175.771 683.34 177.26C682.577 175.593 681.691 173.985 680.69 172.45C677.9 167.94 673.51 164.23 668.31 163.19C659.52 161.43 650.5 168.09 647.66 176.6C644.82 185.11 647.19 194.67 651.85 202.33C656.51 209.99 664.59 220 679.38 225C689.58 223.7 703.24 214.65 709.32 208C715.4 201.35 719.6 192.54 718.49 183.64Z" fill="#5F12DA"/>
<path d="M715.26 199.63H715L714.14 199.57L710.82 199.3L698.61 198.18L698.83 198.05L693.75 211.3L693.44 212.1L693.24 211.27C691.69 204.84 689.96 197.63 688.13 190.04C687.57 187.68 687.01 185.37 686.47 183.11L686.99 183.21L677.64 196L677.55 196.12H677.4L656 193.89L649.93 193.21L648.32 193.01C648.135 192.992 647.951 192.962 647.77 192.92C647.956 192.898 648.144 192.898 648.33 192.92L649.94 193.04L656.03 193.57L677.49 195.57L677.25 195.68L686.52 182.84L686.89 182.33L687.04 182.95C687.58 185.21 688.133 187.517 688.7 189.87L693.76 211.11H693.25L698.44 197.89L698.5 197.74H698.66L710.84 199.05L714.15 199.43L715.01 199.55L715.26 199.63Z" fill="#FAFAFA"/>
<path d="M114.92 215.13C112.92 209.38 106.73 204.94 100.77 206.21C99.022 206.658 97.3832 207.456 95.953 208.556C94.5228 209.656 93.331 211.035 92.45 212.61C91.7816 213.659 91.1965 214.759 90.7 215.9C89.9501 214.904 89.1314 213.962 88.25 213.08C87.0376 211.744 85.5674 210.667 83.9278 209.915C82.2883 209.162 80.5134 208.749 78.71 208.7C72.62 208.79 67.57 214.5 66.9 220.55C66.23 226.6 69.17 232.62 73.36 237.05C78.9272 243.25 86.5642 247.207 94.84 248.18C101.43 245.86 109.22 237.9 112.31 232.65C115.4 227.4 116.93 220.89 114.92 215.13Z" fill="#5F12DA"/>
<path d="M115.06 226.22H114.86L114.28 226.31L112.03 226.6L103.77 227.6L103.89 227.48C103.46 230.23 102.96 233.48 102.41 237L102.32 237.58L102.07 237.05L95.64 223.68L93.55 219.32H93.91L89.55 229.16V229.25H89.45L74.89 230.82L70.76 231.24L69.67 231.33C69.5436 231.341 69.4164 231.341 69.29 231.33C69.4094 231.289 69.534 231.266 69.66 231.26L70.75 231.11L74.86 230.59L89.41 228.88L89.26 228.98L93.59 219.13L93.76 218.74L93.95 219.13L96 223.55C98.29 228.34 100.46 232.88 102.39 236.94L102.05 236.99L103.61 227.47V227.36H103.71L111.99 226.49L114.25 226.27H114.84L115.06 226.22Z" fill="#FAFAFA"/>
<path d="M474.49 54.41H473.53C471.63 54.41 470.09 55.9501 470.09 57.85V95.86C470.09 97.7598 471.63 99.3 473.53 99.3H474.49C476.39 99.3 477.93 97.7598 477.93 95.86V57.85C477.93 55.9501 476.39 54.41 474.49 54.41Z" fill="#E0E0E0"/>
<path d="M474.49 67.82H473.53C471.63 67.82 470.09 69.3602 470.09 71.26V95.85C470.09 97.7499 471.63 99.29 473.53 99.29H474.49C476.39 99.29 477.93 97.7499 477.93 95.85V71.26C477.93 69.3602 476.39 67.82 474.49 67.82Z" fill="#5F12DA"/>
<path d="M487.34 54.41H486.38C484.48 54.41 482.94 55.9501 482.94 57.85V95.86C482.94 97.7598 484.48 99.3 486.38 99.3H487.34C489.24 99.3 490.78 97.7598 490.78 95.86V57.85C490.78 55.9501 489.24 54.41 487.34 54.41Z" fill="#E0E0E0"/>
<path d="M487.34 74.78H486.38C484.48 74.78 482.94 76.3202 482.94 78.22V95.86C482.94 97.7599 484.48 99.3 486.38 99.3H487.34C489.24 99.3 490.78 97.7599 490.78 95.86V78.22C490.78 76.3202 489.24 74.78 487.34 74.78Z" fill="#5F12DA"/>
<path d="M501.87 54.41H500.91C499.01 54.41 497.47 55.9501 497.47 57.85V95.86C497.47 97.7598 499.01 99.3 500.91 99.3H501.87C503.77 99.3 505.31 97.7598 505.31 95.86V57.85C505.31 55.9501 503.77 54.41 501.87 54.41Z" fill="#E0E0E0"/>
<path d="M501.87 62.52H500.91C499.01 62.52 497.47 64.0602 497.47 65.96V95.86C497.47 97.7599 499.01 99.3 500.91 99.3H501.87C503.77 99.3 505.31 97.7599 505.31 95.86V65.96C505.31 64.0602 503.77 62.52 501.87 62.52Z" fill="#5F12DA"/>
<path d="M474.13 99.3C474.467 99.255 474.8 99.1916 475.13 99.11C475.912 98.8842 476.6 98.4097 477.089 97.7584C477.578 97.1071 477.842 96.3144 477.84 95.5C477.84 94.73 477.84 93.91 477.84 93.02C477.84 91.24 477.84 89.21 477.84 87.02C477.84 82.54 477.84 77.21 477.84 71.3C477.84 68.3 477.84 65.24 477.84 62.02V59.54C477.895 58.7431 477.841 57.9425 477.68 57.16C477.423 56.4097 476.932 55.7613 476.28 55.3095C475.629 54.8576 474.849 54.6259 474.056 54.6483C473.264 54.6706 472.499 54.9458 471.873 55.4336C471.248 55.9215 470.795 56.5964 470.58 57.36C470.467 58.158 470.43 58.965 470.47 59.77V62.2C470.47 65.42 470.47 68.53 470.47 71.49C470.47 77.4 470.47 82.72 470.41 87.21C470.41 89.44 470.41 91.47 470.41 93.21C470.41 94.1 470.41 94.93 470.41 95.68C470.443 96.3573 470.665 97.0119 471.05 97.57C471.589 98.3555 472.402 98.9118 473.33 99.13C473.97 99.26 474.33 99.23 474.33 99.26C473.999 99.3118 473.661 99.3118 473.33 99.26C472.359 99.0669 471.498 98.513 470.92 97.71C470.498 97.1239 470.248 96.4309 470.2 95.71C470.2 94.94 470.2 94.12 470.2 93.23C470.2 91.45 470.2 89.42 470.2 87.23C470.2 82.74 470.2 77.42 470.15 71.51C470.15 68.51 470.15 65.44 470.15 62.22V58.54C470.135 58.1061 470.178 57.6721 470.28 57.25C470.488 56.3687 470.989 55.5841 471.702 55.0247C472.414 54.4652 473.294 54.1639 474.2 54.17C475.049 54.1875 475.872 54.4696 476.553 54.9769C477.234 55.4842 477.74 56.1915 478 57C478.123 57.4222 478.184 57.8602 478.18 58.3V62C478.18 65.22 478.18 68.32 478.18 71.28C478.18 77.19 478.18 82.52 478.13 87C478.13 89.23 478.13 91.26 478.13 93C478.13 93.89 478.13 94.71 478.13 95.48C478.118 96.3317 477.827 97.1559 477.301 97.8262C476.775 98.4964 476.044 98.9755 475.22 99.19C474.867 99.2963 474.497 99.3337 474.13 99.3Z" fill="#263238"/>
<path d="M487 99.3C487.336 99.2539 487.67 99.1904 488 99.11C488.913 98.8465 489.693 98.246 490.18 97.43C490.531 96.8475 490.714 96.1798 490.71 95.5C490.71 94.73 490.71 93.91 490.71 93.02C490.71 91.24 490.71 89.21 490.71 87.02C490.71 82.54 490.71 77.21 490.66 71.3C490.66 68.3 490.66 65.24 490.66 62.02V59.54C490.711 58.7426 490.654 57.942 490.49 57.16C490.236 56.4082 489.747 55.7578 489.095 55.3043C488.444 54.8508 487.664 54.6182 486.871 54.6405C486.078 54.6629 485.312 54.9391 484.688 55.4286C484.063 55.9181 483.612 56.595 483.4 57.36C483.282 58.1575 483.245 58.965 483.29 59.77V62.2C483.29 65.42 483.29 68.53 483.29 71.49C483.29 77.4 483.29 82.72 483.24 87.21C483.24 89.44 483.24 91.47 483.24 93.21C483.24 94.1 483.24 94.93 483.24 95.68C483.27 96.3563 483.488 97.0108 483.87 97.57C484.368 98.3386 485.123 98.9055 486 99.17C486.63 99.3 487 99.27 487 99.3C486.669 99.3517 486.331 99.3517 486 99.3C485.029 99.1009 484.167 98.5486 483.58 97.75C483.161 97.1627 482.915 96.4699 482.87 95.75C482.87 94.98 482.87 94.16 482.87 93.27C482.87 91.49 482.87 89.46 482.87 87.27C482.87 82.78 482.87 77.46 482.87 71.55C482.87 68.55 482.87 65.48 482.87 62.26V58.54C482.851 58.1065 482.892 57.6725 482.99 57.25C483.207 56.3713 483.712 55.5905 484.424 55.0323C485.136 54.474 486.015 54.1704 486.92 54.17C487.79 54.1607 488.64 54.4305 489.346 54.9398C490.051 55.4492 490.575 56.1712 490.84 57C490.963 57.4221 491.024 57.8602 491.02 58.3V62C491.02 65.22 491.02 68.32 491.02 71.28C491.02 77.19 491.02 82.52 490.96 87C490.96 89.23 490.96 91.26 490.96 93C490.96 93.89 490.96 94.71 490.96 95.48C490.947 96.1889 490.739 96.8807 490.36 97.48C490.1 97.9093 489.757 98.2831 489.352 98.5799C488.947 98.8768 488.488 99.0909 488 99.21C487.675 99.2995 487.336 99.33 487 99.3Z" fill="#263238"/>
<path d="M501.51 99.3C501.847 99.255 502.18 99.1916 502.51 99.11C503.292 98.8842 503.98 98.4097 504.469 97.7584C504.958 97.1071 505.222 96.3144 505.22 95.5C505.22 94.73 505.22 93.91 505.22 93.02C505.22 91.24 505.22 89.21 505.22 87.02C505.22 82.54 505.22 77.21 505.16 71.3C505.16 68.3 505.16 65.24 505.16 62.02V59.54C505.215 58.7431 505.161 57.9425 505 57.16C504.743 56.4097 504.252 55.7613 503.6 55.3095C502.949 54.8576 502.169 54.6259 501.376 54.6483C500.584 54.6706 499.819 54.9458 499.193 55.4336C498.568 55.9215 498.115 56.5964 497.9 57.36C497.787 58.158 497.75 58.965 497.79 59.77V62.2C497.79 65.42 497.79 68.53 497.79 71.49C497.79 77.4 497.79 82.72 497.73 87.21C497.73 89.44 497.73 91.47 497.73 93.21C497.73 94.1 497.73 94.93 497.73 95.68C497.763 96.3573 497.985 97.0119 498.37 97.57C498.909 98.3555 499.722 98.9118 500.65 99.13C501.29 99.26 501.65 99.23 501.65 99.26C501.319 99.3118 500.981 99.3118 500.65 99.26C499.679 99.061 498.817 98.5086 498.23 97.71C497.811 97.1228 497.565 96.4299 497.52 95.71C497.52 94.94 497.52 94.12 497.52 93.23C497.52 91.45 497.52 89.42 497.52 87.23C497.52 82.74 497.52 77.42 497.47 71.51C497.47 68.51 497.47 65.44 497.47 62.22V58.54C497.455 58.1061 497.498 57.6721 497.6 57.25C497.808 56.3687 498.309 55.5841 499.021 55.0247C499.734 54.4652 500.614 54.1639 501.52 54.17C502.421 54.1267 503.31 54.3815 504.052 54.8949C504.793 55.4083 505.344 56.1517 505.62 57.01C505.734 57.4342 505.794 57.8709 505.8 58.31V59.54C505.8 60.36 505.8 61.17 505.8 61.98C505.8 65.2 505.8 68.3 505.8 71.26C505.8 77.17 505.8 82.5 505.75 86.98C505.75 89.21 505.75 91.24 505.75 92.98C505.75 93.87 505.75 94.69 505.75 95.46C505.737 96.313 505.445 97.1383 504.917 97.8087C504.39 98.479 503.656 98.9574 502.83 99.17C502.407 99.3177 501.954 99.3622 501.51 99.3Z" fill="#263238"/>
<path d="M487.71 25.38C487.993 25.3515 488.277 25.3515 488.56 25.38L491.05 25.45C491.6 25.45 492.21 25.45 492.89 25.54L495.09 25.84L497.65 26.21L500.52 26.92C505.452 28.1727 510.144 30.2267 514.41 33C520.101 36.6453 524.994 41.4082 528.79 47C534.691 55.6985 537.597 66.0823 537.07 76.58C536.99 77.71 537.02 78.87 536.85 80.02C536.68 81.17 536.5 82.31 536.33 83.48C535.454 88.2416 533.881 92.8479 531.66 97.15C529.294 101.657 526.286 105.797 522.73 109.44C518.941 113.164 514.6 116.281 509.86 118.68C504.959 121.199 499.65 122.831 494.18 123.5C492.793 123.712 491.393 123.829 489.99 123.85C488.586 123.957 487.177 123.983 485.77 123.93C482.922 123.812 480.088 123.454 477.3 122.86C471.285 121.561 465.564 119.154 460.43 115.76H460.95L443.77 122.66L442.77 123.07L443 122C444.74 115.7 446.407 109.58 448 103.64L448.09 104.09C443.424 97.9087 440.282 90.7138 438.92 83.09C438.263 79.5469 438.038 75.9372 438.25 72.34C438.286 70.6103 438.45 68.8856 438.74 67.18C438.867 66.3333 438.997 65.4933 439.13 64.66C439.29 63.84 439.54 63.04 439.73 62.23C442.639 50.9404 449.469 41.0541 459 34.34C462.505 31.8243 466.342 29.8052 470.4 28.34L473 27.4L475.44 26.78L477.67 26.23C478.38 26.09 479.08 26.02 479.72 25.92C481.02 25.75 482.16 25.53 483.16 25.48L485.69 25.39H487.23C487.403 25.3683 487.577 25.3683 487.75 25.39C487.579 25.4299 487.405 25.4533 487.23 25.46L485.69 25.58L483.19 25.75C482.19 25.83 481.06 26.08 479.78 26.27C470.46 27.8777 461.808 32.1572 454.874 38.5888C447.94 45.0203 443.023 53.3271 440.72 62.5C440.53 63.29 440.29 64.08 440.14 64.89C439.99 65.7 439.9 66.53 439.77 67.36C439.493 69.0363 439.343 70.7311 439.32 72.43C439.12 75.9679 439.348 79.517 440 83C441.353 90.45 444.436 97.4785 449 103.52L449.16 103.73L449.09 103.98L444.09 122.35L443.36 121.7L460.53 114.79L460.8 114.68L461.04 114.84C466.061 118.15 471.652 120.499 477.53 121.77C480.257 122.336 483.027 122.67 485.81 122.77C487.187 122.818 488.566 122.792 489.94 122.69C491.309 122.668 492.676 122.554 494.03 122.35C499.379 121.701 504.572 120.114 509.37 117.66C514.007 115.32 518.26 112.285 521.98 108.66C525.463 105.101 528.416 101.059 530.75 96.66C532.935 92.4496 534.492 87.9417 535.37 83.28C535.54 82.14 535.72 81.01 535.89 79.89C536.06 78.77 536.04 77.63 536.12 76.52C536.676 66.2095 533.869 55.9973 528.12 47.42C524.435 41.8901 519.674 37.1593 514.12 33.51C509.926 30.73 505.309 28.6464 500.45 27.34L497.61 26.59L495 26.15L492.82 25.79C492.15 25.72 491.54 25.7 490.99 25.66L488.52 25.48C488.248 25.4679 487.977 25.4345 487.71 25.38Z" fill="#263238"/>
<path d="M439.37 358L443.69 362.32C444.161 362.78 444.791 363.041 445.45 363.05C445.779 363.051 446.104 362.988 446.408 362.862C446.712 362.737 446.988 362.553 447.221 362.321C447.453 362.088 447.637 361.812 447.762 361.508C447.888 361.204 447.951 360.879 447.95 360.55C447.941 359.891 447.68 359.261 447.22 358.79L442.9 354.47C442.67 354.235 442.395 354.048 442.092 353.921C441.789 353.794 441.464 353.728 441.135 353.728C440.806 353.728 440.481 353.794 440.178 353.921C439.875 354.048 439.6 354.235 439.37 354.47C439.137 354.7 438.952 354.974 438.825 355.276C438.698 355.578 438.631 355.902 438.63 356.23C438.642 356.893 438.907 357.526 439.37 358Z" fill="#FAFAFA"/>
<path d="M455.05 292.85C451.833 293.197 448.587 293.197 445.37 292.85C448.587 292.503 451.833 292.503 455.05 292.85Z" fill="#455A64"/>
<path d="M488.85 181.41C487.14 176.22 490.23 157.61 486.16 157.58C480.96 157.53 482.45 178.58 482.44 180.5C482.43 182.42 479.71 182.36 479.81 180.66C479.95 178.22 480.81 154.17 475.57 154.59C472.68 154.82 473.05 160.07 473.05 160.07C473.05 160.07 474.66 184.13 472.2 184.25C469.74 184.37 468.86 170.33 468.66 165.39C468.46 160.66 466.47 158.78 464.29 160.39C462.11 162 462.55 176.22 462.67 180.97C462.79 185.72 463.35 198.73 457.86 192.4C452.37 186.07 445.86 183.22 443.54 183.67C441.22 184.12 441.14 187.47 443.49 188.56C445.39 189.44 448.13 191.88 450.11 193.8C451.644 195.457 452.986 197.282 454.11 199.24C455.65 201.704 456.769 204.408 457.42 207.24C457.965 209.467 458.976 211.554 460.388 213.36C461.8 215.167 463.58 216.653 465.61 217.72L465.35 226.54L490.7 224.34L491.19 207.66C491.45 194.91 493.68 186.33 495.02 178.75C497.17 166.66 495.61 166.29 494.16 166.36C491 166.47 490.53 186.47 488.85 181.41Z" fill="#B78876"/>
<path d="M488.85 197.77C487.674 197.99 486.511 198.28 485.37 198.64C482.667 199.644 480.36 201.492 478.79 203.91C478.321 204.648 477.929 205.432 477.62 206.25L477.47 206.63L477.16 206.37C475.403 204.905 473.416 203.74 471.28 202.92C469.68 202.3 468.66 202.09 468.68 202C469.615 202.039 470.537 202.232 471.41 202.57C473.642 203.293 475.718 204.429 477.53 205.92L477.07 206.05C477.386 205.19 477.791 204.365 478.28 203.59C479.179 202.209 480.325 201.005 481.66 200.04C482.751 199.262 483.955 198.655 485.23 198.24C486.087 197.966 486.973 197.795 487.87 197.73C488.197 197.694 488.527 197.708 488.85 197.77Z" fill="#AA6550"/>
<path d="M485.32 215.6C483.4 216.564 481.312 217.148 479.17 217.32C477.05 217.677 474.881 217.627 472.78 217.17C472.78 216.99 475.63 217.17 479.09 216.72C482.55 216.27 485.27 215.43 485.32 215.6Z" fill="#AA6550"/>
<path d="M417.28 216.36C417.28 216.36 430.49 223.11 437.44 232.83C444.39 242.55 465.38 272.69 465.38 272.69L462.38 226.95L494.8 222.75C494.8 222.75 504.23 268.82 506.44 284.75C508.5 299.66 507.64 314.33 493.08 322.33C475.9 331.77 456.39 319.02 449.9 314.18C441.84 308.18 426.96 298.37 426.96 298.37L417.28 216.36Z" fill="#E0E0E0"/>
<path d="M400.99 210.65L391.74 200.32L351.31 197.22L346.07 205.69L360.24 294.13L353.86 383.47H406.54L400.99 210.65Z" fill="#5F12DA"/>
<g opacity="0.3">
<path d="M356.3 362.22C357.69 360.74 359.97 358.69 362 358.65C376.56 358.33 391.43 356.87 406 356.55L406.56 383.47L399.47 380.15C399.07 377.15 398.56 373.44 395.77 372.15C394.19 371.4 392.34 371.69 390.63 372.03C385.37 373.03 380.15 374.43 374.8 374.76C369.45 375.09 363.85 374.32 359.36 371.39C357.762 370.45 356.479 369.058 355.67 367.39C355.274 366.557 355.122 365.629 355.234 364.713C355.346 363.798 355.715 362.933 356.3 362.22Z" fill="black"/>
</g>
<path d="M391.74 200.32L417.64 217.08L423.12 235.06L428.36 291.12L422.58 348.49L432.56 383.47H406.54L406.49 369.67L403.71 272.53L400.99 210.65L391.74 200.32Z" fill="#E0E0E0"/>
<path d="M405.69 285.92C405.849 285.69 405.993 285.449 406.12 285.2C406.4 284.68 406.79 283.97 407.27 283.07C407.75 282.17 408.21 280.94 408.82 279.57C409.1 278.88 409.34 278.12 409.62 277.32C409.9 276.52 410.21 275.68 410.44 274.77C412.62 267.57 414.07 257.18 413.76 245.71C413.76 244.82 413.7 243.94 413.64 243.07V242.92L413.5 242.86L409.44 241.15L409.5 241.57L413.55 238.32L413.64 238.25V238.15C413.677 234.207 413.051 230.286 411.79 226.55C410.79 223.16 409.66 220.24 408.68 217.84C407.7 215.44 406.84 213.56 406.23 212.28C405.93 211.64 405.69 211.16 405.52 210.83C405.441 210.659 405.347 210.495 405.24 210.34C405.291 210.519 405.358 210.693 405.44 210.86L406.09 212.35C406.65 213.64 407.46 215.54 408.4 217.95C409.34 220.36 410.4 223.29 411.4 226.67C412.612 230.361 413.207 234.226 413.16 238.11L413.25 237.94L409.19 241.19L408.87 241.45L409.25 241.61L413.3 243.32L413.15 243.11C413.21 243.96 413.24 244.84 413.27 245.72C413.58 257.14 412.2 267.49 410.11 274.72C409.89 275.63 409.59 276.47 409.33 277.27C409.07 278.07 408.84 278.83 408.57 279.52C407.99 280.89 407.57 282.1 407.1 283.04C406.63 283.98 406.3 284.67 406.04 285.2C405.904 285.43 405.787 285.671 405.69 285.92Z" fill="#263238"/>
<path d="M423.88 322.42C423.968 322.171 424.042 321.917 424.1 321.66C424.24 321.12 424.42 320.39 424.65 319.48C424.88 318.57 425.16 317.36 425.43 316C425.7 314.64 426.05 313.09 426.33 311.36C426.61 309.63 426.96 307.74 427.22 305.7C427.48 303.66 427.74 301.47 427.98 299.17C428.4 294.56 428.68 289.47 428.68 284.12C428.68 278.77 428.36 273.69 427.93 269.12C427.67 266.82 427.45 264.63 427.13 262.59C426.81 260.55 426.54 258.66 426.23 256.93C425.92 255.2 425.59 253.66 425.31 252.3C425.03 250.94 424.76 249.77 424.52 248.82C424.28 247.87 424.1 247.18 423.96 246.64C423.912 246.382 423.835 246.131 423.73 245.89C423.757 246.149 423.8 246.406 423.86 246.66C423.98 247.21 424.13 247.95 424.33 248.87C424.53 249.79 424.79 250.99 425.04 252.36C425.29 253.73 425.62 255.27 425.88 257C426.14 258.73 426.47 260.61 426.72 262.65C426.97 264.69 427.23 266.86 427.47 269.16C427.87 273.76 428.16 278.83 428.18 284.16C428.2 289.49 427.91 294.56 427.52 299.16C427.29 301.46 427.1 303.64 426.8 305.68C426.5 307.72 426.26 309.61 425.98 311.33C425.7 313.05 425.4 314.61 425.16 315.97C424.92 317.33 424.67 318.51 424.46 319.47C424.25 320.43 424.12 321.12 424 321.67C423.935 321.915 423.894 322.167 423.88 322.42Z" fill="#263238"/>
<path d="M417.61 369.34C417.883 370.161 418.259 370.944 418.73 371.67C419.773 373.476 420.96 375.195 422.28 376.81C423.604 378.427 425.059 379.932 426.63 381.31C427.251 381.916 427.946 382.44 428.7 382.87C428.13 382.225 427.519 381.617 426.87 381.05C425.389 379.61 423.987 378.091 422.67 376.5C421.366 374.904 420.154 373.235 419.04 371.5C418.611 370.75 418.133 370.028 417.61 369.34Z" fill="#263238"/>
<g opacity="0.3">
<path d="M404.68 322.4C401.94 320.97 398.59 321.72 395.68 322.83C392.77 323.94 389.93 325.43 386.84 325.4C382.64 325.4 376.69 323.83 374.5 320.26C372.09 316.17 370.301 311.745 369.19 307.13C365.85 291.76 365.09 278.27 361.75 262.89C359.93 254.53 357.62 244.89 354.52 236.89C351.52 229.16 348.72 221.16 346.36 213.21C346.78 231.21 347.2 249.35 349.98 267.21C351.78 278.68 354.54 289.98 356.05 301.48C357.34 311.33 357.7 321.28 358.05 331.21L367.42 342.67L393.25 343.19L406.74 325.79L404.68 322.4Z" fill="black"/>
</g>
<path d="M311.06 215.59C306.184 217.479 301.847 220.538 298.429 224.496C295.011 228.454 292.618 233.191 291.46 238.29C283.88 271.73 270.9 316.2 270.7 330.55C270.44 348.82 278.43 361.33 288.86 363.64C297.11 365.46 371.86 361.37 371.86 361.37L375.4 330.17L314.81 324.6L323.1 278.27L314.89 214.1L311.06 215.59Z" fill="#E0E0E0"/>
<path d="M314.91 214.1L331.66 207.26L350.79 196.92L350.97 197.48C348.81 201.18 346.51 208.01 347.32 212.22L362 288.84L358.67 344.84L353.86 383.49H305.63L323.12 342.32L314.51 265L314.91 214.1Z" fill="#E0E0E0"/>
<path d="M323.61 273.59C323.539 273.752 323.492 273.924 323.47 274.1C323.4 274.5 323.3 274.99 323.18 275.59C322.93 276.95 322.59 278.8 322.18 281.06C321.36 285.75 320.26 292.11 319.03 299.14C317.8 306.17 316.8 312.55 316.03 317.25C315.68 319.52 315.39 321.38 315.17 322.75L314.97 324.25C314.941 324.425 314.941 324.604 314.97 324.78C315.029 324.611 315.072 324.437 315.1 324.26C315.19 323.87 315.28 323.38 315.41 322.78C315.66 321.42 316 319.57 316.41 317.31C317.25 312.69 318.41 306.31 319.58 299.23C320.75 292.15 321.84 285.76 322.58 281.12C322.93 278.85 323.22 276.99 323.43 275.62C323.51 275.01 323.57 274.52 323.62 274.12C323.632 273.943 323.629 273.766 323.61 273.59Z" fill="#263238"/>
<path d="M341.61 202.32C341.61 202.32 341.61 202.38 341.54 202.5C341.47 202.62 341.45 202.84 341.38 203.06C341.26 203.56 341.04 204.28 340.85 205.24C340.253 207.961 339.825 210.716 339.57 213.49C339.181 217.671 339.074 221.874 339.25 226.07C339.41 230.85 339.92 236.14 340.64 241.74V241.92H340.81L346.29 242.92L346.1 242.58C345.79 243.42 345.46 244.33 345.21 245.26C343.699 251.393 343.917 257.824 345.84 263.84C347.371 268.717 349.533 273.373 352.27 277.69C354.55 281.39 356.62 284.24 358.04 286.22L359.7 288.47L360.14 289.05C360.24 289.17 360.3 289.24 360.31 289.23C360.271 289.157 360.228 289.087 360.18 289.02C360.08 288.85 359.94 288.66 359.78 288.41L358.2 286.1C356.83 284.1 354.81 281.22 352.57 277.5C349.895 273.19 347.781 268.556 346.28 263.71C344.41 257.772 344.21 251.434 345.7 245.39C345.94 244.48 346.26 243.59 346.56 242.77L346.67 242.48L346.38 242.43L340.9 241.43L341.1 241.64C340.37 236.05 339.85 230.78 339.65 226.01C339.453 221.833 339.523 217.648 339.86 213.48C340.085 210.715 340.462 207.964 340.99 205.24C341.16 204.24 341.35 203.55 341.44 203.04C341.44 202.82 341.52 202.63 341.55 202.47C341.575 202.422 341.595 202.372 341.61 202.32Z" fill="#263238"/>
<path d="M341.61 280.91V268.69C341.61 268.69 341.45 265.69 343.99 266.31C346.53 266.93 346.05 271.7 346.05 271.7C346.05 271.7 346.53 290.28 345.42 290.12C344.31 289.96 343.88 288.53 343.88 288.53V281.39L341.61 280.91Z" fill="#5F12DA"/>
<path d="M331 281.67C335.36 282.003 339.74 282.003 344.1 281.67C339.74 281.337 335.36 281.337 331 281.67Z" fill="#263238"/>
<path d="M306.85 222.85C307.295 223.048 307.752 223.215 308.22 223.35C309.463 223.801 310.679 224.325 311.86 224.92C315.735 226.92 319.095 229.788 321.68 233.3C322.414 234.288 323.06 235.339 323.61 236.44C324.09 237.484 324.478 238.568 324.77 239.68C325.275 241.573 325.609 243.507 325.77 245.46C325.91 247.12 325.94 248.46 325.95 249.46C325.914 249.946 325.914 250.434 325.95 250.92C326.057 250.441 326.111 249.951 326.11 249.46C326.179 248.128 326.179 246.792 326.11 245.46C326.011 243.479 325.717 241.513 325.23 239.59C324.945 238.447 324.557 237.333 324.07 236.26C323.499 235.127 322.829 234.046 322.07 233.03C319.451 229.444 315.993 226.553 312 224.61C310.797 224.031 309.55 223.55 308.27 223.17C307.809 223.016 307.333 222.908 306.85 222.85Z" fill="#263238"/>
<path d="M371.88 361.37C371.867 361.174 371.867 360.976 371.88 360.78C371.88 360.36 371.97 359.78 372.04 359.08C372.19 357.56 372.41 355.39 372.69 352.67C373.3 347.14 374.15 339.35 375.15 330.14L375.36 330.41L352.86 328.5L314.86 325.15C311.023 324.786 307.162 325.547 303.75 327.34C302.829 327.831 301.943 328.385 301.1 329L300.45 329.5C300.381 329.56 300.303 329.611 300.22 329.65C301.244 328.663 302.402 327.824 303.66 327.16C307.084 325.268 310.993 324.44 314.89 324.78L352.94 327.98L375.44 329.93H375.68V330.17C374.6 339.36 373.68 347.17 373.04 352.68L372.24 359.07C372.15 359.78 372.07 360.34 372.02 360.76C371.991 360.967 371.944 361.171 371.88 361.37Z" fill="#263238"/>
<path d="M355.61 362.2C355.506 361.77 355.446 361.332 355.43 360.89C355.35 360.04 355.27 358.8 355.21 357.27C354.92 349.297 355.626 341.319 357.31 333.52C357.64 332.03 357.93 330.83 358.17 330C358.259 329.566 358.397 329.143 358.58 328.74C358.553 329.182 358.482 329.621 358.37 330.05C358.18 330.99 357.95 332.18 357.67 333.59C357.11 336.59 356.45 340.75 356.04 345.38C355.63 350.01 355.55 354.22 355.57 357.26C355.57 358.71 355.62 359.92 355.63 360.87C355.671 361.313 355.664 361.759 355.61 362.2Z" fill="#263238"/>
<path d="M364.19 352.42C364.19 352.42 364.44 352.29 364.93 352.29C365.634 352.316 366.312 352.56 366.87 352.99C367.303 353.303 367.652 353.72 367.884 354.202C368.116 354.684 368.225 355.216 368.2 355.75C368.164 356.41 367.944 357.047 367.564 357.588C367.183 358.129 366.659 358.552 366.05 358.81C365.426 359.026 364.753 359.06 364.11 358.907C363.467 358.755 362.881 358.423 362.42 357.95C362.04 357.562 361.772 357.078 361.645 356.55C361.518 356.021 361.537 355.468 361.7 354.95C361.876 354.265 362.282 353.662 362.85 353.24C363.044 353.069 363.284 352.958 363.54 352.92C363.54 352.97 363.32 353.08 362.98 353.39C362.514 353.835 362.194 354.41 362.06 355.04C361.946 355.488 361.951 355.957 362.073 356.403C362.196 356.848 362.433 357.254 362.76 357.58C363.159 357.979 363.663 358.257 364.213 358.383C364.763 358.508 365.337 358.476 365.87 358.29C366.386 358.066 366.831 357.705 367.157 357.247C367.483 356.789 367.677 356.251 367.72 355.69C367.752 355.227 367.672 354.763 367.485 354.338C367.299 353.913 367.012 353.54 366.65 353.25C366.153 352.834 365.551 352.564 364.91 352.47C364.669 352.466 364.429 352.449 364.19 352.42Z" fill="#263238"/>
<path d="M351 196.66L350.69 196.85L349.69 197.4L346 199.49L331.74 207.38L307.74 217.44C302.769 219.436 298.543 222.931 295.65 227.44C294.059 229.847 292.776 232.444 291.83 235.17C290.789 238.024 290.075 240.986 289.7 244C285.26 263 280.22 284.81 275.33 308C274.33 313 273.33 317.92 272.33 322.79C272.08 324.01 271.88 325.23 271.66 326.44C271.44 327.65 271.21 328.85 271.06 330.06C270.718 332.444 270.594 334.854 270.69 337.26C270.858 341.95 271.938 346.563 273.87 350.84C274.806 352.905 276.009 354.839 277.45 356.59C278.872 358.28 280.561 359.726 282.45 360.87C286.13 363.074 290.388 364.119 294.67 363.87L306.83 363.62C314.67 363.43 321.98 363.2 328.65 362.97L360.25 361.82L368.84 361.49L371.08 361.42H371.84L371.08 361.48L368.85 361.61L360.26 362.03C352.8 362.38 342.01 362.86 328.67 363.35C322 363.6 314.67 363.85 306.84 364.06L294.67 364.34C290.302 364.597 285.957 363.534 282.2 361.29C280.264 360.118 278.529 358.642 277.06 356.92C275.597 355.131 274.37 353.162 273.41 351.06C271.445 346.724 270.345 342.047 270.17 337.29C270.069 334.854 270.193 332.413 270.54 330C270.69 328.77 270.93 327.57 271.14 326.36C271.35 325.15 271.56 323.92 271.81 322.71C272.73 317.83 273.73 312.89 274.81 307.91C279.7 284.73 284.76 262.91 289.24 243.91C289.611 240.877 290.322 237.895 291.36 235.02C292.319 232.262 293.626 229.637 295.25 227.21C298.196 222.641 302.497 219.106 307.55 217.1L331.61 207.1L345.93 199.33L349.71 197.33L350.71 196.82L351 196.66Z" fill="#263238"/>
<path d="M434.91 277.01H412.05V284.14H434.91V277.01Z" fill="#263238"/>
<path d="M519.45 290.12L443.4 371.24L369.22 371.7L367.46 368.33L440.58 289.11L519.45 290.12Z" fill="#263238"/>
<path d="M447.57 289.11C447.57 289.11 452.51 289.11 453.98 290.83C455.69 292.89 458.98 297.53 451.8 309.34C448.94 314.07 434.91 330.34 429.14 347.01C423.75 362.57 426.21 367.71 426.21 367.71L479.73 366L480.73 364.07C480.73 364.07 504 301.07 497.84 289.07C495 283.6 447.19 287.09 447.57 289.11Z" fill="#E0E0E0"/>
<path d="M488.62 364.4L431.05 364.88C430.36 350.3 435.42 339.71 442.95 327.2C445.83 322.41 449.77 318.31 452.64 313.51C455.661 308.454 457.427 302.748 457.79 296.87C457.94 294.53 457.79 292 456.36 290.15C454.93 288.3 449.79 288.2 447.57 289.15C450.057 287.351 452.99 286.268 456.05 286.02C460.7 285.63 498.76 285.89 505.84 285.95C507.55 286.024 509.245 286.3 510.89 286.77C516.05 289.44 517.11 296.47 516.38 301.53C515.69 306.32 512.72 310.84 508.99 315.9C507.906 317.349 506.904 318.858 505.99 320.42C502.06 327.23 491.21 346.33 489.26 352.92C488.315 356.671 488.097 360.568 488.62 364.4Z" fill="#FAFAFA"/>
<path d="M488.62 364.28L474.76 364.39L448.28 364.61L437.16 364.71H433.44C432.749 364.785 432.051 364.785 431.36 364.71C431.31 364.71 431.08 364.71 431.05 364.71C431.02 364.71 431.13 363.64 431.12 363.52C431.12 363.02 431.12 362.52 431.12 362.01C431.12 361.03 431.15 360.05 431.21 359.07C431.445 355.323 432.096 351.613 433.15 348.01C435.29 340.75 438.96 334.01 442.84 327.59C444.97 324.05 447.61 320.88 450.05 317.59C452.405 314.475 454.31 311.045 455.71 307.4C457.082 303.776 457.856 299.953 458 296.08C458.07 293.6 457.71 290.2 455.1 289.08C453.905 288.616 452.631 288.392 451.35 288.42C450.5 288.42 448.53 288.31 447.8 288.9C447.59 289.06 447.7 289.12 447.85 289.08C447.973 289.015 448.088 288.934 448.19 288.84C448.58 288.58 448.99 288.33 449.4 288.11C450.8 287.352 452.297 286.79 453.85 286.44C456.95 285.75 460.31 285.95 463.47 285.92C473.33 285.84 483.2 285.92 493.07 285.92L504.46 285.99C506.253 285.98 508.042 286.151 509.8 286.5C512.8 287.13 514.8 290.16 515.68 292.91C516.614 295.91 516.786 299.096 516.18 302.18C515.42 306.09 513.27 309.59 511.04 312.83C509.04 315.75 506.95 318.57 505.17 321.65C503.95 323.8 502.73 325.94 501.52 328.1C498.63 333.26 495.79 338.46 493.15 343.77C490.88 348.32 488.69 352.83 488.34 357.99C488.18 360.131 488.25 362.284 488.55 364.41C488.55 364.57 488.82 364.5 488.79 364.34C488.036 359.136 488.782 353.825 490.94 349.03C493.2 343.88 495.88 338.9 498.57 333.97C501.023 329.47 503.53 325.003 506.09 320.57C509.82 314.12 515.82 308.49 516.65 300.73C517.16 295.88 516.04 288.73 510.95 286.56C509.179 285.951 507.311 285.676 505.44 285.75H501.28C491.59 285.69 481.89 285.64 472.2 285.65C468.02 285.65 463.84 285.65 459.66 285.73C455.87 285.8 452.24 286.17 448.86 288.14C448.397 288.402 447.952 288.696 447.53 289.02C447.44 289.09 447.53 289.27 447.66 289.23C449.873 288.462 452.275 288.427 454.51 289.13C457.51 290.13 457.86 293.73 457.74 296.48C457.396 303.072 455.29 309.45 451.64 314.95C449.86 317.65 447.8 320.16 445.87 322.76C444.055 325.245 442.386 327.832 440.87 330.51C437.963 335.351 435.538 340.466 433.63 345.78C431.551 351.923 430.639 358.401 430.94 364.88C430.94 364.914 430.954 364.948 430.978 364.972C431.002 364.996 431.036 365.01 431.07 365.01L450.52 364.85L481.52 364.59L488.63 364.53C488.65 364.535 488.67 364.535 488.689 364.53C488.709 364.526 488.727 364.517 488.743 364.504C488.758 364.491 488.771 364.475 488.779 364.457C488.787 364.438 488.791 364.418 488.79 364.398C488.789 364.378 488.784 364.359 488.774 364.341C488.765 364.323 488.751 364.308 488.735 364.297C488.718 364.285 488.699 364.278 488.679 364.275C488.659 364.272 488.639 364.274 488.62 364.28Z" fill="#263238"/>
<path d="M485.22 352.38C485.22 352.53 475.07 352.64 462.54 352.64C450.01 352.64 439.86 352.53 439.86 352.38C439.86 352.23 450.02 352.12 462.54 352.12C475.06 352.12 485.22 352.24 485.22 352.38Z" fill="#263238"/>
<path d="M486.49 344.8C486.49 344.94 476.34 345.06 463.81 345.06C451.28 345.06 441.13 344.94 441.13 344.8C441.13 344.66 451.29 344.54 463.81 344.54C476.33 344.54 486.49 344.65 486.49 344.8Z" fill="#263238"/>
<path d="M492.59 336.66C492.59 336.8 482.43 336.92 469.91 336.92C457.39 336.92 447.23 336.8 447.23 336.66C447.23 336.52 457.38 336.4 469.91 336.4C482.44 336.4 492.59 336.51 492.59 336.66Z" fill="#263238"/>
<path d="M496.34 329.22C496.34 329.36 486.19 329.48 473.66 329.48C461.13 329.48 450.98 329.36 450.98 329.22C450.98 329.08 461.14 328.96 473.66 328.96C486.18 328.96 496.34 329.08 496.34 329.22Z" fill="#263238"/>
<path d="M498.84 322.42C498.84 322.56 488.69 322.68 476.17 322.68C463.65 322.68 453.49 322.56 453.49 322.42C453.49 322.28 463.64 322.16 476.17 322.16C488.7 322.16 498.84 322.27 498.84 322.42Z" fill="#263238"/>
<path d="M505 313.48C505 313.63 494.85 313.74 482.32 313.74C469.79 313.74 459.64 313.63 459.64 313.48C459.64 313.33 469.8 313.22 482.32 313.22C494.84 313.22 505 313.34 505 313.48Z" fill="#263238"/>
<path d="M510.8 304.93C510.8 305.07 500.65 305.19 488.12 305.19C475.59 305.19 465.44 305.07 465.44 304.93C465.44 304.79 475.6 304.67 488.12 304.67C500.64 304.67 510.8 304.79 510.8 304.93Z" fill="#263238"/>
<path d="M510.38 296.8C510.38 296.94 500.23 297.06 487.71 297.06C475.19 297.06 465 296.94 465 296.8C465 296.66 475.15 296.54 487.68 296.54C500.21 296.54 510.38 296.65 510.38 296.8Z" fill="#263238"/>
<path d="M440.58 289.11C440.692 289.17 440.796 289.244 440.89 289.33L441.79 290.04L445.23 292.84L445.32 292.92L445.24 293.01C439.05 299.78 425.63 314.25 410.06 330.94C399.32 342.71 388.97 352.8 381.48 360.07C377.73 363.71 374.68 366.62 372.56 368.63L370.1 370.93L369.45 371.51L369.22 371.7C369.22 371.7 369.28 371.62 369.41 371.48L370.03 370.85L372.42 368.48L381.23 359.81C388.65 352.46 398.94 342.36 409.68 330.58C425.25 313.89 438.75 299.5 445.07 292.85V293.02L441.69 290.13L440.83 289.38C440.737 289.299 440.653 289.209 440.58 289.11Z" fill="#455A64"/>
<path d="M375.34 333.75H386.2C386.2 333.75 393.54 327.35 395.2 326.86C398.69 325.81 407.7 324.71 407.7 324.71L401.55 331.39C400.12 332.93 397.5 334.32 399.05 334.32H410.35C410.35 334.32 421.9 328.78 423.62 329.79C425.06 330.64 425.56 332.18 424.09 334.32C422.62 336.46 412.49 341.52 411.32 341.91L408.01 342.91L411.12 343.91L425.85 338.76C426.8 338.59 428.13 338.43 428.56 338.99C428.744 339.181 428.888 339.407 428.983 339.655C429.079 339.902 429.124 340.166 429.117 340.432C429.11 340.697 429.049 340.958 428.94 341.2C428.831 341.442 428.674 341.659 428.48 341.84C426.381 343.732 424.156 345.479 421.82 347.07C421.82 347.07 424.17 350.53 422.22 352.28C420.27 354.03 414.63 359.28 414.63 359.28C414.63 359.28 414.04 362.2 412.29 363.56C410.54 364.92 391.29 364.92 389.9 364.92C388.51 364.92 380.75 360.45 380.75 360.45L372.3 359.82L375.34 333.75Z" fill="#B78876"/>
<path d="M408.92 352.59C409.6 352.814 410.315 352.912 411.03 352.88C411.815 352.886 412.595 352.747 413.33 352.47C414.213 352.12 415.054 351.674 415.84 351.14C417.51 350.05 419 349.05 420.07 348.3C420.676 347.937 421.239 347.508 421.75 347.02C421.1 347.287 420.48 347.623 419.9 348.02C418.78 348.69 417.26 349.66 415.59 350.74C414.834 351.261 414.026 351.703 413.18 352.06C412.491 352.338 411.762 352.5 411.02 352.54C409.74 352.61 408.92 352.52 408.92 352.59Z" fill="#AA6550"/>
<path d="M408 359.8C408.375 360.242 408.897 360.533 409.47 360.62C410.838 360.927 412.273 360.69 413.47 359.96C414.641 359.295 415.725 358.489 416.7 357.56C417.44 356.85 417.84 356.35 417.79 356.31C416.334 357.472 414.819 358.557 413.25 359.56C412.146 360.235 410.84 360.5 409.56 360.31C409.025 360.19 408.502 360.02 408 359.8Z" fill="#AA6550"/>
<path d="M402.58 343.85C403.602 343.974 404.639 343.892 405.63 343.61C406.651 343.475 407.634 343.135 408.52 342.61C407.505 342.701 406.501 342.885 405.52 343.16C404.52 343.293 403.535 343.524 402.58 343.85Z" fill="#AA6550"/>
<path d="M328.9 127.28C327.48 124.743 325.571 122.513 323.282 120.72C320.993 118.928 318.37 117.608 315.567 116.837C312.764 116.067 309.835 115.861 306.951 116.233C304.068 116.604 301.287 117.545 298.77 119C294.46 121.5 290.87 126 291.16 131C291.43 135.7 294.93 139.49 298.23 142.84C292.97 145.03 290.34 151.69 292.06 157.11C293.78 162.53 299.2 166.36 304.86 166.88C310.52 167.4 316.23 164.94 320.32 160.98C324.322 156.891 327.118 151.776 328.4 146.2" fill="#263238"/>
<path d="M310.94 139.4C310.026 139.799 309.053 140.046 308.06 140.13C305.328 140.39 302.581 139.819 300.18 138.49C298.512 137.594 297.045 136.365 295.87 134.88C294.525 133.158 293.622 131.132 293.24 128.98C292.805 126.52 292.952 123.993 293.669 121.6C294.386 119.207 295.654 117.015 297.37 115.2C299.135 113.443 301.247 112.072 303.572 111.177C305.896 110.282 308.382 109.881 310.87 110C314.974 110.082 318.898 111.698 321.87 114.53C323.836 116.473 324.994 119.088 325.11 121.85C325.134 122.589 325.064 123.329 324.9 124.05C324.85 124.3 324.77 124.48 324.74 124.6C324.71 124.72 324.67 124.78 324.66 124.78C324.86 123.817 324.944 122.833 324.91 121.85C324.714 119.171 323.539 116.658 321.61 114.79C318.686 112.074 314.86 110.539 310.87 110.48C308.453 110.377 306.04 110.776 303.784 111.65C301.528 112.524 299.477 113.855 297.76 115.56C296.105 117.321 294.882 119.443 294.188 121.759C293.493 124.074 293.347 126.519 293.76 128.9C294.111 130.978 294.966 132.939 296.25 134.61C297.64 136.372 299.432 137.774 301.477 138.698C303.522 139.622 305.759 140.041 308 139.92C308.991 139.815 309.973 139.641 310.94 139.4Z" fill="#263238"/>
<path d="M317.4 143.76C317.191 143.937 316.959 144.086 316.71 144.2C316.072 144.563 315.403 144.867 314.71 145.11C313.672 145.479 312.6 145.747 311.51 145.91C310.168 146.095 308.811 146.142 307.46 146.05C306.103 145.946 304.762 145.694 303.46 145.3C302.406 144.974 301.384 144.548 300.41 144.03C299.755 143.682 299.129 143.281 298.54 142.83C298.13 142.5 297.92 142.31 297.94 142.28C297.96 142.25 298.94 142.9 300.58 143.7C301.547 144.162 302.55 144.543 303.58 144.84C306.12 145.561 308.78 145.762 311.4 145.43C312.466 145.293 313.52 145.069 314.55 144.76C316.33 144.22 317.35 143.67 317.4 143.76Z" fill="#455A64"/>
<path d="M291.14 131.88C291.212 131.462 291.347 131.058 291.54 130.68C292.003 129.601 292.732 128.658 293.66 127.94C295.113 126.978 296.792 126.413 298.53 126.3C300.624 126.126 302.732 126.227 304.8 126.6C308.556 127.205 312.179 128.453 315.51 130.29C316.514 130.846 317.483 131.464 318.41 132.14C318.776 132.363 319.112 132.632 319.41 132.94C319.023 132.77 318.657 132.555 318.32 132.3C317.63 131.88 316.63 131.3 315.32 130.62C311.986 128.901 308.402 127.716 304.7 127.11C302.678 126.749 300.619 126.638 298.57 126.78C296.905 126.863 295.289 127.365 293.87 128.24C292.959 128.896 292.221 129.765 291.72 130.77C291.545 131.149 291.352 131.52 291.14 131.88Z" fill="#455A64"/>
<path d="M321.68 151.94C321.68 151.94 321.68 152.06 321.54 152.28C321.4 152.5 321.24 152.79 321 153.18C320.278 154.255 319.432 155.242 318.48 156.12C317.059 157.422 315.43 158.477 313.66 159.24C311.478 160.174 309.124 160.641 306.75 160.61C304.378 160.603 302.036 160.088 299.88 159.1C298.121 158.278 296.572 157.068 295.35 155.56C294.529 154.539 293.957 153.341 293.68 152.06C293.604 151.715 293.56 151.363 293.55 151.01C293.55 150.77 293.55 150.65 293.55 150.65C293.55 150.65 293.61 151.15 293.85 152.01C294.2 153.229 294.803 154.36 295.62 155.33C296.839 156.753 298.355 157.893 300.06 158.67C302.164 159.603 304.439 160.087 306.74 160.09C309.041 160.115 311.323 159.676 313.45 158.8C315.189 158.065 316.797 157.052 318.21 155.8C319.502 154.641 320.665 153.347 321.68 151.94Z" fill="#455A64"/>
<path d="M323.59 157.14C323.266 157.617 322.898 158.062 322.49 158.47C321.75 159.29 320.65 160.47 319.19 161.8C318.46 162.47 317.63 163.18 316.71 163.9C313.509 166.597 309.373 167.923 305.2 167.59C302.293 167.507 299.48 166.537 297.14 164.81C295.304 163.327 293.853 161.423 292.91 159.26C292.262 157.818 291.886 156.269 291.8 154.69C291.771 154.26 291.771 153.829 291.8 153.4C291.807 153.251 291.83 153.104 291.87 152.96C291.892 153.109 291.892 153.261 291.87 153.41C291.865 153.831 291.888 154.252 291.94 154.67C292.092 156.21 292.508 157.712 293.17 159.11C294.135 161.187 295.573 163.009 297.37 164.43C299.644 166.07 302.358 166.99 305.16 167.07C307.959 167.236 310.755 166.707 313.3 165.53C314.394 164.973 315.427 164.303 316.38 163.53C317.3 162.83 318.13 162.14 318.87 161.53C320.35 160.24 321.49 159.12 322.28 158.34C322.693 157.915 323.13 157.514 323.59 157.14Z" fill="#455A64"/>
<path d="M332 126.68L333.46 127.83C332.87 125.35 330.09 123.83 327.55 124.05C326.285 124.25 325.082 124.731 324.028 125.458C322.974 126.185 322.096 127.139 321.46 128.25C320.204 130.484 319.373 132.933 319.01 135.47C318.23 139.67 317.84 144.15 319.51 148.07C321.18 151.99 325.51 155.07 329.63 154.07C333.75 153.07 336.06 148.56 336.68 144.36C337.117 141.25 336.928 138.084 336.125 135.048C335.321 132.011 333.919 129.167 332 126.68Z" fill="#5F12DA"/>
<path d="M326.27 145.7C325.068 146.419 323.662 146.722 322.27 146.56C321.297 146.515 320.34 146.302 319.44 145.93C318.71 145.64 318.44 145.09 318.58 145.08C318.883 145.303 319.221 145.475 319.58 145.59C320.47 145.841 321.386 145.992 322.31 146.04C323.636 146.019 324.96 145.905 326.27 145.7Z" fill="#263238"/>
<path d="M328.3 138.28C326.709 138.497 325.099 138.534 323.5 138.39C321.896 138.431 320.293 138.293 318.72 137.98C320.312 137.775 321.921 137.738 323.52 137.87C325.123 137.841 326.725 137.979 328.3 138.28Z" fill="#263238"/>
<path d="M326.7 130.35C326.7 130.52 325.22 130.35 323.48 130.15C322.744 130.088 322.003 130.132 321.28 130.28C320.73 130.4 320.4 130.54 320.36 130.47C320.32 130.4 320.6 130.15 321.17 129.92C321.921 129.659 322.718 129.56 323.51 129.63C324.61 129.664 325.692 129.908 326.7 130.35Z" fill="#263238"/>
<path d="M336.86 110.29C336.74 106.11 340.62 102.87 344.52 101.29C348.42 99.71 352.75 99.18 356.23 96.84C359.31 94.77 361.38 91.54 363.98 88.89C367.196 85.6308 371.22 83.286 375.642 82.0962C380.063 80.9065 384.721 80.9147 389.138 82.1199C393.555 83.3252 397.571 85.6841 400.775 88.9546C403.98 92.2251 406.256 96.2893 407.37 100.73C408.87 106.73 407.85 113.73 403.15 117.73C397.69 122.33 389.59 121.31 382.6 119.88C375.61 118.45 367.69 117.03 361.85 121.14C358.33 123.62 356.31 127.65 354.15 131.38C351.99 135.11 349.3 138.91 345.23 140.31C341.16 141.71 335.63 139.31 335.47 134.99" fill="#263238"/>
<path d="M337.14 112.59C337.6 116.11 335.06 119.25 332.53 121.73C330 124.21 327.15 126.84 326.7 130.35C326.18 134.46 329.17 138.5 328.3 142.54C327.75 145.11 325.76 147.09 324.55 149.42C322.932 152.778 322.663 156.63 323.8 160.18C324.8 163.72 326.5 171.62 328.96 174.37C335.76 181.97 346.58 188.53 356.52 190.81C366.46 193.09 376.78 193.11 386.96 192.48C395.29 191.97 404.87 192.35 411.82 180.89C415.41 174.95 417.2 167.06 419.11 160.39C420.75 154.64 422.18 148.49 420.46 142.76C419.46 139.42 417.46 136.46 416.46 133.12C415.23 128.95 415.68 124.48 415.18 120.12C414.644 115.42 412.993 110.916 410.365 106.983C407.738 103.049 404.21 99.7997 400.074 97.5042C395.937 95.2088 391.313 93.9338 386.585 93.7852C381.857 93.6367 377.162 94.6188 372.89 96.65" fill="#263238"/>
<path d="M351.31 208C351.31 208 351.31 208.25 351.36 208.37L351.31 208Z" fill="#B78876"/>
<path d="M411.22 127C410.44 115.05 402.48 100.39 390.57 101.68L353.38 111.17C351.635 111.358 350.025 112.193 348.867 113.512C347.71 114.831 347.09 116.536 347.13 118.29L351.21 206C351.267 207.49 351.607 208.956 352.21 210.32C354.97 216.4 364.15 231.87 384.07 225.61C388.95 224.08 391.18 218.74 392.14 213.26C392.14 212.61 392.41 212.03 392.42 211.41C392.9 207.32 392.95 203.191 392.57 199.09C392.64 191.85 392.63 188.88 392.63 188.95C392.63 189.02 407.9 186.38 411.03 166.44C412.62 156.53 412.08 140.28 411.22 127Z" fill="#B78876"/>
<path d="M405.23 140C405.238 140.666 404.985 141.309 404.526 141.791C404.066 142.273 403.436 142.557 402.77 142.58C402.445 142.607 402.117 142.569 401.807 142.467C401.497 142.366 401.21 142.203 400.964 141.988C400.717 141.774 400.517 141.512 400.374 141.219C400.23 140.925 400.148 140.606 400.13 140.28C400.122 139.615 400.373 138.974 400.831 138.492C401.288 138.01 401.916 137.726 402.58 137.7C402.906 137.673 403.234 137.711 403.545 137.813C403.856 137.914 404.143 138.077 404.39 138.291C404.637 138.506 404.839 138.767 404.983 139.061C405.127 139.354 405.211 139.674 405.23 140Z" fill="#263238"/>
<path d="M407.71 135.46C407.39 135.79 405.45 134.36 402.71 134.37C399.97 134.38 397.95 135.77 397.65 135.43C397.5 135.28 397.83 134.68 398.7 134.04C399.889 133.214 401.303 132.774 402.75 132.78C404.186 132.768 405.588 133.217 406.75 134.06C407.58 134.7 407.87 135.31 407.71 135.46Z" fill="#263238"/>
<path d="M378 140C378.011 140.665 377.76 141.308 377.302 141.791C376.844 142.273 376.215 142.556 375.55 142.58C375.225 142.607 374.897 142.569 374.587 142.467C374.277 142.366 373.99 142.203 373.744 141.988C373.497 141.774 373.297 141.512 373.154 141.219C373.01 140.925 372.928 140.606 372.91 140.28C372.899 139.615 373.15 138.972 373.608 138.489C374.066 138.007 374.695 137.723 375.36 137.7C375.685 137.673 376.013 137.711 376.323 137.813C376.633 137.914 376.92 138.077 377.166 138.292C377.413 138.506 377.613 138.768 377.756 139.061C377.9 139.355 377.982 139.674 378 140Z" fill="#263238"/>
<path d="M380.67 136C380.35 136.33 378.41 134.9 375.67 134.92C372.93 134.94 370.91 136.31 370.61 135.98C370.46 135.83 370.78 135.22 371.61 134.58C372.802 133.753 374.219 133.313 375.67 133.32C377.105 133.313 378.506 133.761 379.67 134.6C380.54 135.28 380.83 135.88 380.67 136Z" fill="#263238"/>
<path d="M390.7 156.41C390.7 156.25 392.4 155.95 395.17 155.59C395.87 155.52 396.53 155.38 396.65 154.9C396.706 154.175 396.543 153.45 396.18 152.82C395.51 151.12 394.82 149.34 394.09 147.47C391.19 139.86 389.09 133.61 389.39 133.47C389.69 133.33 392.3 139.47 395.2 147.04C395.9 148.92 396.567 150.713 397.2 152.42C397.648 153.263 397.779 154.239 397.57 155.17C397.467 155.413 397.31 155.63 397.111 155.803C396.912 155.977 396.675 156.102 396.42 156.17C396.032 156.278 395.632 156.336 395.23 156.34C392.44 156.55 390.71 156.56 390.7 156.41Z" fill="#263238"/>
<path d="M392.67 189C383.294 189.141 374.062 186.68 366 181.89C366 181.89 372.74 195.68 392.69 193.77L392.67 189Z" fill="#AA6550"/>
<path d="M389.55 163C389.022 162.345 388.337 161.834 387.56 161.514C386.782 161.195 385.936 161.076 385.1 161.17C384.494 161.227 383.906 161.405 383.37 161.694C382.834 161.982 382.361 162.375 381.98 162.85C381.615 163.31 381.399 163.871 381.361 164.457C381.324 165.043 381.466 165.627 381.77 166.13C382.214 166.622 382.794 166.971 383.437 167.133C384.08 167.295 384.756 167.262 385.38 167.04C386.677 166.573 387.869 165.856 388.89 164.93C389.202 164.711 389.467 164.432 389.67 164.11C389.769 163.962 389.822 163.788 389.822 163.61C389.822 163.432 389.769 163.258 389.67 163.11" fill="#AA6550"/>
<path d="M382.61 158.33C383.06 158.33 383.07 161.33 385.61 163.4C388.15 165.47 391.35 165.18 391.37 165.6C391.37 165.78 390.66 166.18 389.32 166.22C387.57 166.25 385.865 165.658 384.51 164.55C383.207 163.492 382.367 161.967 382.17 160.3C382.07 159.05 382.4 158.31 382.61 158.33Z" fill="#263238"/>
<path d="M381.9 131.21C381.63 131.96 378.9 131.61 375.66 132.01C372.42 132.41 369.82 133.29 369.39 132.62C369.2 132.3 369.65 131.62 370.7 130.87C372.102 129.978 373.689 129.417 375.34 129.23C376.992 129.043 378.664 129.234 380.23 129.79C381.42 130.27 382 130.85 381.9 131.21Z" fill="#263238"/>
<path d="M406.68 127.5C406.2 128.12 404.3 127.5 402.02 127.5C399.74 127.5 397.82 127.93 397.37 127.28C397.17 126.96 397.48 126.34 398.32 125.74C399.451 125.029 400.768 124.671 402.103 124.71C403.439 124.749 404.732 125.184 405.82 125.96C406.63 126.55 406.89 127.19 406.68 127.5Z" fill="#263238"/>
<path d="M339.47 176.73C342.22 177.277 345.06 177.162 347.757 176.396C350.453 175.629 352.929 174.233 354.98 172.321C357.031 170.41 358.598 168.038 359.553 165.402C360.507 162.766 360.822 159.941 360.47 157.16C359.85 152.27 357.21 147.28 358.91 142.65C361.15 136.53 369.74 134.65 372.02 128.53C373.35 124.97 372.16 120.82 373.66 117.34C375.07 114.06 378.51 112.18 381.87 110.96C385.23 109.74 388.82 108.96 391.63 106.73C394.44 104.5 396.2 100.41 394.39 97.34C379.501 99.1242 364.878 102.676 350.83 107.92C347.58 109.14 344.16 110.6 342.24 113.49C340.24 116.55 340.3 120.49 340.47 124.17C341.303 142.07 342.137 159.97 342.97 177.87" fill="#263238"/>
<path d="M340.72 183.59C340.601 183.536 340.49 183.465 340.39 183.38L339.51 182.71C338.74 182.1 337.6 181.21 336.21 179.97C334.49 178.483 332.919 176.832 331.52 175.04C329.611 172.657 328.329 169.835 327.79 166.83C327.406 165.002 327.438 163.111 327.883 161.298C328.328 159.484 329.174 157.793 330.36 156.35C331.803 154.898 333.358 153.56 335.01 152.35C336.666 151.085 337.923 149.37 338.63 147.41C340.1 143.34 339.45 138.64 340.02 133.83C340.581 128.812 342.539 124.052 345.67 120.09C347.284 118.088 349.297 116.443 351.58 115.26C353.828 114.243 356.174 113.456 358.58 112.91C360.81 112.356 362.896 111.333 364.7 109.91C366.403 108.49 367.9 106.841 369.15 105.01C371.65 101.46 373.5 97.6699 375.89 94.5099C377.016 92.9572 378.337 91.5556 379.82 90.3399C381.207 89.2241 382.782 88.364 384.47 87.7999C385.914 87.2523 387.466 87.0468 389.003 87.1995C390.541 87.3522 392.021 87.8589 393.33 88.6799C394.252 89.397 395.01 90.3037 395.552 91.3388C396.094 92.374 396.407 93.5134 396.47 94.6799C396.589 96.1509 396.162 97.6141 395.27 98.7899C395.039 99.0844 394.766 99.3437 394.46 99.5599C394.26 99.7199 394.15 99.7899 394.14 99.7699C394.13 99.7499 394.22 99.6699 394.4 99.4999C394.675 99.2568 394.92 98.9815 395.13 98.6799C395.934 97.5103 396.289 96.0902 396.13 94.6799C396.03 93.5821 395.699 92.5176 395.16 91.5561C394.621 90.5946 393.885 89.7577 393 89.0999C391.753 88.3461 390.348 87.8914 388.896 87.7717C387.444 87.652 385.984 87.8705 384.63 88.4099C383.02 88.9678 381.521 89.8038 380.2 90.8799C378.78 92.0913 377.517 93.4753 376.44 94.9999C374.13 98.1099 372.31 101.89 369.78 105.54C368.494 107.436 366.953 109.145 365.2 110.62C363.316 112.124 361.135 113.211 358.8 113.81C356.456 114.352 354.171 115.126 351.98 116.12C349.802 117.252 347.882 118.821 346.34 120.73C343.322 124.561 341.429 129.155 340.87 134C340.29 138.65 340.96 143.43 339.39 147.75C338.618 149.834 337.269 151.654 335.5 153C333.873 154.167 332.335 155.454 330.9 156.85C329.775 158.212 328.968 159.806 328.535 161.518C328.103 163.231 328.057 165.018 328.4 166.75C328.902 169.662 330.107 172.408 331.91 174.75C333.265 176.548 334.778 178.221 336.43 179.75C337.79 181.01 338.89 181.95 339.62 182.6C340.013 182.9 340.381 183.231 340.72 183.59Z" fill="#455A64"/>
<path d="M421.62 152.42C422.154 151.885 422.551 151.23 422.78 150.51C423.008 149.509 423.025 148.472 422.829 147.464C422.632 146.457 422.227 145.502 421.64 144.66C420.95 143.55 420.02 142.45 419.08 141.2C418.008 139.892 417.224 138.372 416.78 136.74C416.38 134.924 416.305 133.052 416.56 131.21C416.77 129.3 417.15 127.36 417.4 125.38C417.89 121.643 417.444 117.842 416.1 114.32C415.008 111.443 413.391 108.795 411.33 106.51C409.943 104.967 408.352 103.621 406.6 102.51C405.36 101.72 404.6 101.36 404.6 101.32C404.792 101.368 404.977 101.442 405.15 101.54C405.669 101.776 406.173 102.043 406.66 102.34C408.478 103.402 410.129 104.726 411.56 106.27C413.699 108.559 415.38 111.238 416.51 114.16C417.908 117.748 418.38 121.631 417.88 125.45C417.63 127.45 417.24 129.4 417.03 131.27C416.771 133.056 416.832 134.875 417.21 136.64C417.625 138.212 418.365 139.68 419.38 140.95C420.3 142.2 421.23 143.33 421.92 144.48C422.517 145.366 422.915 146.371 423.088 147.426C423.26 148.48 423.203 149.56 422.92 150.59C422.736 151.14 422.432 151.642 422.03 152.06C421.91 152.198 421.772 152.319 421.62 152.42Z" fill="#263238"/>
<path d="M602.87 383.82C413.32 383.82 260.24 383.94 260.24 384.08C260.24 384.22 413.32 384.34 602.87 384.34V383.82Z" fill="#263238"/>
</svg>
